<svg fill="white" xmlns="http://www.w3.org/2000/svg" enable-background="new 0 0 1600 1600" viewBox="0 0 1600 1600" id="scan-virus"><path d="M617.7,1121.9c-65.4,0-129.1-12.4-189.5-36.9c-62.5-25.3-118.5-62.6-166.6-110.6S176.4,870.3,151,807.9c-24.5-60.3-36.9-124.1-36.9-189.5c0-65.4,12.4-129.1,36.9-189.5c25.3-62.5,62.6-118.5,110.6-166.6c48.1-48.1,104.1-85.3,166.6-110.6c60.3-24.5,124.1-36.9,189.5-36.9c65.4,0,129.1,12.4,189.5,36.9c62.5,25.3,118.5,62.6,166.6,110.6s85.3,104.1,110.6,166.6c24.5,60.3,36.9,124.1,36.9,189.5c0,65.4-12.4,129.1-36.9,189.5c-25.3,62.5-62.6,118.5-110.6,166.6s-104.1,85.3-166.6,110.6C746.9,1109.5,683.1,1121.9,617.7,1121.9z M617.7,156.8c-123.3,0-239.2,48-326.4,135.2c-180,180-180,472.8,0,652.7c180,180,472.8,180,652.7,0c180-180,180-472.8,0-652.7C856.9,204.8,741,156.8,617.7,156.8z"></path><path d="M1459.6,1565c-28,0-54.3-10.9-74.1-30.7l-505.8-505.8c-8.2-8.2-8.2-21.5,0-29.7c8.2-8.2,21.5-8.2,29.7,0l505.8,505.8c11.9,11.9,27.6,18.4,44.4,18.4s32.5-6.5,44.4-18.4c24.5-24.5,24.5-64.3,0-88.8L998.2,910.1c-8.2-8.2-8.2-21.5,0-29.7s21.5-8.2,29.7,0l505.8,505.8c40.8,40.8,40.8,107.3,0,148.2C1513.9,1554.1,1487.6,1565,1459.6,1565z"></path><path d="M1000.8 1140.9c-5.4 0-10.7-2-14.8-6.2-8.2-8.2-8.2-21.5 0-29.7l118.5-118.5c8.2-8.2 21.5-8.2 29.7 0 8.2 8.2 8.2 21.5 0 29.7l-118.5 118.5C1011.5 1138.8 1006.1 1140.9 1000.8 1140.9zM1353.4 1493.5c-5.4 0-10.7-2-14.8-6.2-8.2-8.2-8.2-21.5 0-29.7l118.5-118.5c8.2-8.2 21.5-8.2 29.7 0 8.2 8.2 8.2 21.5 0 29.7l-118.5 118.5C1364.2 1491.5 1358.8 1493.5 1353.4 1493.5zM885.6 686.8c-3.9-3.9-9.3-6.2-14.8-6.2h-60.3c1-9.9 1.4-19.9 1.4-29.9 0-9.2-.4-18.3-1.2-27.4h60.5c5.6 0 10.9-2.2 14.8-6.2l44-44c8.2-8.2 8.2-21.5 0-29.7-8.2-8.2-21.5-8.2-29.7 0l-37.9 37.9h-58.5c-8.8-37.6-24.9-72.1-47.2-100.8-16.8-21.6-36.3-38.7-57.5-51l26.4-89c3.3-11.1-3-22.8-14.2-26.1-11.1-3.3-22.8 3-26.1 14.2l-25.1 84.5c-13.8-3.8-28.1-5.8-42.7-5.8-14.6 0-28.8 2-42.7 5.8l-25.1-84.5c-3.3-11.1-15-17.5-26.1-14.2-11.1 3.3-17.5 15-14.2 26.1l26.4 89c-21.2 12.3-40.7 29.4-57.5 51-22.4 28.7-38.4 63.2-47.2 100.8H373l-37.9-37.9c-8.2-8.2-21.5-8.2-29.7 0-8.2 8.2-8.2 21.5 0 29.7l44 44c3.9 3.9 9.3 6.2 14.8 6.2h60.2c-.8 9-1.2 18.2-1.2 27.4 0 10.1.5 20.1 1.4 29.9h-60c-5.6 0-10.9 2.2-14.8 6.2l-44 44c-8.2 8.2-8.2 21.5 0 29.7 4.1 4.1 9.5 6.2 14.8 6.2 5.4 0 10.7-2.1 14.8-6.2l37.9-37.9h58.4c4.9 20.1 11.9 39.4 20.9 57.3h-47.5c-5.6 0-10.9 2.2-14.8 6.2l-44 44c-8.2 8.2-8.2 21.5 0 29.7 4.1 4.1 9.5 6.2 14.8 6.2 5.4 0 10.7-2.1 14.8-6.2l37.9-37.9h65.4c36.7 46.5 85.7 72.1 138.2 72.1 0 0 0 0 .1 0 0 0 0 0 .1 0 52.5 0 101.5-25.6 138.2-72.1h65.7l37.9 37.9c4.1 4.1 9.5 6.2 14.8 6.2s10.7-2.1 14.8-6.2c8.2-8.2 8.2-21.5 0-29.7l-44-44c-3.9-3.9-9.3-6.2-14.8-6.2h-47.8c9-17.9 16-37.1 20.9-57.3H862l37.9 37.9c4.1 4.1 9.5 6.2 14.8 6.2s10.7-2.1 14.8-6.2c8.2-8.2 8.2-21.5 0-29.7L885.6 686.8zM617.6 449.3c59.4 0 111 45.3 136.1 111.1H481.5C506.6 494.6 558.1 449.3 617.6 449.3zM470 700.5c-.1-1.9-.4-3.7-1-5.4-2.4-14.3-3.7-29.2-3.7-44.4 0-14.3 1.1-28.3 3.3-41.7.6-1.9 1-4 1.1-6.1 0-.2.1-.3.1-.5h126.8v247.8C535 838.9 485.1 778.8 470 700.5zM638.6 850.1V602.4h126.8c2.9 15.5 4.4 31.7 4.4 48.3C769.9 752.3 712.6 836.6 638.6 850.1zM618.9 237c-11.6 0-21-9.4-21-21V56c0-11.6 9.4-21 21-21s21 9.4 21 21v160C639.9 227.6 630.5 237 618.9 237zM216.7 638.5h-160c-11.6 0-21-9.4-21-21s9.4-21 21-21h160c11.6 0 21 9.4 21 21S228.3 638.5 216.7 638.5zM618.1 1200.7c-11.6 0-21-9.4-21-21v-160c0-11.6 9.4-21 21-21s21 9.4 21 21v160C639.1 1191.3 629.7 1200.7 618.1 1200.7z"></path><g><path d="M1180.4,639.2h-160c-11.6,0-21-9.4-21-21s9.4-21,21-21h160c11.6,0,21,9.4,21,21S1192,639.2,1180.4,639.2z"></path></g></svg>