<svg width="1250" height="365" viewBox="0 0 1250 365" fill="none" xmlns="http://www.w3.org/2000/svg">
<path d="M1105.94 141.248L1103.07 142.224C1103.39 142.149 1103.71 142.08 1104.03 142.005C1105.1 141.677 1106.17 141.346 1107.24 141.009C1106.81 141.091 1106.38 141.167 1105.94 141.248ZM1087.78 146.409C1087.03 146.674 1086.29 146.946 1085.55 147.209L1085.85 147.132L1088.65 146.222L1087.78 146.409ZM1098.12 142.698C1096.49 143.29 1094.87 143.858 1093.24 144.447C1094.09 144.261 1094.94 144.061 1095.78 143.873C1097.38 143.341 1098.99 142.784 1100.6 142.238C1099.77 142.39 1098.94 142.548 1098.12 142.698ZM1069.28 151.999C1068.66 152.228 1068.06 152.439 1067.44 152.666L1067.45 152.662C1068.16 152.421 1068.88 152.168 1069.6 151.924L1069.28 151.999ZM1079.51 148.166C1078.05 148.715 1076.58 149.272 1075.13 149.815C1075.79 149.653 1076.45 149.497 1077.11 149.334C1078.77 148.759 1080.4 148.213 1082.06 147.629C1081.21 147.806 1080.36 147.991 1079.51 148.166ZM1090.38 144.051C1088.33 144.841 1086.3 145.601 1084.26 146.378C1085.31 146.155 1086.36 145.93 1087.42 145.703C1089.46 144.976 1091.51 144.235 1093.56 143.501C1092.5 143.686 1091.44 143.868 1090.38 144.051ZM269.056 81.0377L269.771 81.2403C270.316 81.2626 270.859 81.2874 271.403 81.3112L270.739 81.1536C270.179 81.1139 269.617 81.0771 269.056 81.0377ZM1049.94 158.119L1049.29 158.361C1049.59 158.258 1049.87 158.162 1050.16 158.06L1049.94 158.119ZM1060.79 153.985C1059.44 154.513 1058.1 155.025 1056.75 155.54C1057.28 155.401 1057.81 155.268 1058.33 155.128C1059.76 154.614 1061.2 154.087 1062.63 153.572C1062.02 153.714 1061.41 153.845 1060.79 153.985ZM1071.57 149.756C1069.61 150.525 1067.64 151.301 1065.69 152.065C1066.76 151.812 1067.85 151.548 1068.93 151.293C1070.85 150.582 1072.8 149.851 1074.74 149.12C1073.69 149.332 1072.63 149.546 1071.57 149.756ZM1082.62 145.358C1080.27 146.308 1077.94 147.244 1075.62 148.167C1076.8 147.927 1077.97 147.701 1079.16 147.458C1081.56 146.55 1083.95 145.658 1086.36 144.748C1085.11 144.958 1083.86 145.153 1082.62 145.358ZM262.84 80.6142C263.256 80.751 263.668 80.8931 264.084 81.0311L266.484 81.1176C266.08 81.0049 265.678 80.8885 265.273 80.7771C264.462 80.7226 263.651 80.6668 262.84 80.6142ZM259.173 79.4227L259.988 79.6855L261.623 79.7859L260.909 79.5922C260.33 79.5357 259.752 79.4767 259.173 79.4227ZM255.777 78.3356L255.891 78.371L256.405 78.4174L255.777 78.3356ZM1041.43 160.254C1040.16 160.749 1038.89 161.254 1037.61 161.754L1039.5 161.223C1040.74 160.764 1042 160.279 1043.25 159.807C1042.64 159.958 1042.04 160.104 1041.43 160.254ZM1052.41 155.868C1050.55 156.626 1048.7 157.388 1046.87 158.118C1047.76 157.892 1048.67 157.644 1049.57 157.415C1051.55 156.665 1053.51 155.927 1055.49 155.176C1054.46 155.404 1053.43 155.643 1052.41 155.868ZM1063.66 151.288L1056.72 154.113C1057.96 153.833 1059.19 153.562 1060.44 153.278C1062.67 152.414 1064.94 151.515 1067.19 150.625C1066.01 150.854 1064.84 151.064 1063.66 151.288ZM1074.93 146.598C1072.34 147.695 1069.74 148.798 1067.18 149.851C1068.52 149.593 1069.87 149.314 1071.21 149.049C1073.86 148.001 1076.48 146.982 1079.14 145.919C1077.74 146.144 1076.33 146.379 1074.93 146.598ZM256.796 80.2447C257.317 80.4434 257.84 80.639 258.36 80.8401C259.335 80.8698 260.312 80.8974 261.286 80.9297C260.765 80.7586 260.239 80.5932 259.717 80.4226C258.743 80.3639 257.771 80.3018 256.796 80.2447ZM253.236 78.8918C253.644 79.0438 254.05 79.1996 254.457 79.3535C255.251 79.3985 256.043 79.4451 256.836 79.4927L255.604 79.1034C254.814 79.0326 254.026 78.9606 253.236 78.8918ZM249.729 77.6036L250.537 77.9006C251.086 77.9463 251.635 77.9915 252.183 78.0394C251.938 77.9637 251.695 77.8869 251.449 77.8115C250.875 77.7436 250.303 77.6718 249.729 77.6036ZM246.435 76.4179L246.614 76.4814L247.264 76.5539L247.218 76.54L246.435 76.4179ZM1021.75 166.881C1020.62 167.342 1019.47 167.814 1018.34 168.266C1018.71 168.157 1019.08 168.043 1019.45 167.932C1020.77 167.433 1022.07 166.947 1023.39 166.445L1021.75 166.881ZM1032.87 162.361C1031.07 163.098 1029.28 163.819 1027.48 164.553C1028.37 164.313 1029.24 164.089 1030.13 163.847C1031.95 163.14 1033.8 162.406 1035.64 161.683C1034.72 161.905 1033.79 162.142 1032.87 162.361ZM1044.24 157.62C1042.04 158.551 1039.83 159.489 1037.66 160.387C1038.8 160.111 1039.93 159.829 1041.07 159.548C1043.35 158.644 1045.61 157.768 1047.91 156.847C1046.68 157.111 1045.46 157.362 1044.24 157.62ZM1055.8 152.761C1053.18 153.87 1050.59 154.951 1047.98 156.049C1049.33 155.757 1050.69 155.461 1052.05 155.162C1054.61 154.129 1057.19 153.071 1059.77 152.016C1058.45 152.261 1057.12 152.522 1055.8 152.761ZM1067.44 147.722C1064.63 148.953 1061.8 150.196 1059.02 151.38C1060.45 151.117 1061.87 150.849 1063.3 150.579C1066.1 149.426 1068.92 148.262 1071.75 147.079C1070.31 147.298 1068.88 147.509 1067.44 147.722ZM250.871 79.9165C251.438 80.167 252.003 80.4209 252.569 80.6732C253.694 80.7028 254.817 80.7368 255.941 80.7698C255.348 80.5432 254.755 80.316 254.16 80.0919C253.064 80.0319 251.967 79.975 250.871 79.9165ZM247.382 78.4026C247.889 78.6211 248.396 78.8386 248.902 79.0574C249.87 79.1078 250.837 79.1611 251.805 79.2132C251.279 79.0179 250.753 78.8261 250.227 78.6331C249.279 78.5543 248.33 78.4794 247.382 78.4026ZM243.962 76.9489C244.379 77.1237 244.8 77.2944 245.217 77.4711C246.003 77.5324 246.787 77.5986 247.571 77.6615C247.146 77.5085 246.716 77.3601 246.29 77.2081L243.962 76.9489ZM240.642 75.5699C240.914 75.6808 241.183 75.7956 241.454 75.9066C242.016 75.9669 242.576 76.0323 243.138 76.0939L242.35 75.8181C241.781 75.7356 241.213 75.6508 240.642 75.5699ZM237.445 74.2847L237.699 74.3864C237.939 74.4194 238.18 74.4504 238.42 74.484L238.288 74.4391C238.006 74.3888 237.727 74.335 237.445 74.2847ZM1001.95 173.793C1000.82 174.26 999.728 174.685 998.607 175.144C998.844 175.071 999.075 175.004 999.312 174.931C1000.51 174.465 1001.73 173.983 1002.93 173.513C1002.6 173.605 1002.27 173.703 1001.95 173.793ZM1013 169.166C1011.34 169.864 1009.66 170.57 1008.01 171.257C1008.84 171.019 1009.67 170.787 1010.5 170.547C1012.24 169.857 1013.96 169.186 1015.72 168.481C1014.81 168.718 1013.91 168.932 1013 169.166ZM1024.7 164.258C1022.43 165.226 1020.2 166.142 1017.94 167.096C1019.09 166.798 1020.24 166.479 1021.39 166.176C1023.58 165.293 1025.79 164.391 1027.98 163.497C1026.89 163.754 1025.8 164.007 1024.7 164.258ZM1036.1 159.325C1033.6 160.407 1031.11 161.496 1028.64 162.551C1029.94 162.246 1031.22 161.961 1032.53 161.65C1035.05 160.61 1037.6 159.554 1040.16 158.482C1038.8 158.763 1037.44 159.052 1036.1 159.325ZM1048.11 154.105C1045.24 155.367 1042.42 156.582 1039.57 157.822C1041 157.525 1042.45 157.216 1043.89 156.91C1046.68 155.74 1049.48 154.56 1052.29 153.377C1050.9 153.624 1049.51 153.865 1048.11 154.105ZM1060 148.797C1056.97 150.154 1053.94 151.518 1050.95 152.837C1052.45 152.573 1053.94 152.323 1055.44 152.052C1058.4 150.791 1061.41 149.484 1064.41 148.175C1062.94 148.389 1061.47 148.59 1060 148.797ZM244.968 79.6185C245.58 79.9276 246.196 80.2319 246.806 80.5441C248.028 80.5694 249.249 80.5931 250.471 80.6218C249.84 80.3439 249.207 80.0691 248.575 79.7937C247.373 79.7319 246.17 79.6749 244.968 79.6185ZM241.647 77.9577C242.207 78.2329 242.765 78.5128 243.323 78.7909C244.411 78.8405 245.501 78.8857 246.589 78.9381C246.017 78.6937 245.45 78.4433 244.878 78.2011C243.802 78.1159 242.724 78.0365 241.647 77.9577ZM238.336 76.3479C238.832 76.5864 239.325 76.8287 239.819 77.0688C240.761 77.1367 241.705 77.2031 242.646 77.2733C242.13 77.0586 241.616 76.842 241.099 76.6292C240.18 76.5318 239.257 76.4431 238.336 76.3479ZM235.056 74.7968C235.469 74.9904 235.883 75.183 236.296 75.3785L238.606 75.6136C238.183 75.4436 237.758 75.2745 237.335 75.105C236.577 75.0006 235.816 74.8984 235.056 74.7968ZM231.871 73.3211C232.162 73.4543 232.458 73.5833 232.749 73.7174C233.304 73.7901 233.855 73.8672 234.409 73.9422C234.121 73.8293 233.83 73.7203 233.542 73.6094C232.985 73.5135 232.429 73.4151 231.871 73.3211ZM228.853 71.9604L229.153 72.0951C229.41 72.1372 229.669 72.1771 229.926 72.2198L229.714 72.1392L228.853 71.9604ZM981.381 181.13C980.491 181.499 979.594 181.874 978.701 182.245C979.04 182.136 979.375 182.032 979.714 181.923C980.621 181.563 981.543 181.19 982.459 180.821C982.096 180.928 981.743 181.025 981.381 181.13ZM993.044 176.229C991.438 176.92 989.841 177.601 988.256 178.27C988.929 178.068 989.606 177.862 990.279 177.659C991.967 176.978 993.664 176.288 995.348 175.608C994.578 175.819 993.814 176.021 993.044 176.229ZM1004.46 171.315C1002.32 172.235 1000.18 173.163 998.049 174.075C999.217 173.753 1000.39 173.422 1001.57 173.093C1003.64 172.24 1005.76 171.346 1007.87 170.458C1006.73 170.743 1005.59 171.036 1004.46 171.315ZM1016.3 166.169C1013.82 167.261 1011.37 168.329 1008.92 169.396C1010.16 169.084 1011.39 168.78 1012.63 168.462L1020.13 165.32C1018.85 165.61 1017.58 165.885 1016.3 166.169ZM1028.2 160.88C1025.41 162.126 1022.62 163.37 1019.85 164.593C1021.34 164.257 1022.84 163.895 1024.34 163.551C1027 162.418 1029.72 161.227 1032.43 160.048C1031.02 160.328 1029.61 160.608 1028.2 160.88ZM1040.38 155.417C1037.35 156.79 1034.35 158.136 1031.36 159.477C1032.82 159.188 1034.27 158.912 1035.74 158.614C1038.77 157.302 1041.78 156.005 1044.83 154.679C1043.34 154.931 1041.86 155.172 1040.38 155.417ZM1052.61 149.815C1049.39 151.297 1046.17 152.775 1042.98 154.225C1044.57 153.959 1046.17 153.67 1047.76 153.394C1050.85 152.034 1054.02 150.601 1057.18 149.185C1055.65 149.395 1054.13 149.614 1052.61 149.815ZM245.437 83.0936C276.02 101.576 303.552 124.246 331.602 147.352C434.512 232.129 544.524 322.687 839.088 232.373M239.119 79.3533C239.736 79.7088 240.348 80.0725 240.961 80.432C242.276 80.4536 243.592 80.4765 244.906 80.5028C244.261 80.1767 243.615 79.8515 242.968 79.5279C241.686 79.4681 240.405 79.4067 239.119 79.3533ZM235.93 77.545C236.52 77.877 237.108 78.2102 237.695 78.5454C238.901 78.5929 240.103 78.6452 241.305 78.6997C240.691 78.3966 240.072 78.0996 239.454 77.7997C238.281 77.7131 237.107 77.6246 235.93 77.545ZM232.768 75.789C233.319 76.0909 233.872 76.388 234.42 76.6928C235.49 76.764 236.561 76.8359 237.629 76.9115C237.061 76.6389 236.489 76.3713 235.92 76.1015C234.87 75.9956 233.82 75.8908 232.768 75.789ZM229.638 74.0891C230.125 74.3495 230.61 74.6119 231.095 74.8742C232.011 74.96 232.93 75.0387 233.844 75.1286C233.347 74.8965 232.854 74.6605 232.356 74.4322C231.453 74.3144 230.544 74.2035 229.638 74.0891ZM226.522 72.4467C226.928 72.6577 227.33 72.8735 227.735 73.0862L229.998 73.3687C229.581 73.1812 229.167 72.9911 228.749 72.8052L226.522 72.4467ZM223.453 70.8759L224.329 71.3201C224.881 71.4055 225.428 71.4969 225.977 71.5852L225.107 71.2074C224.555 71.0979 224.005 70.9835 223.453 70.8759ZM220.617 69.4511L220.959 69.6178L221.715 69.7603L221.419 69.6376C221.153 69.5736 220.883 69.5141 220.617 69.4511ZM960.999 188.592C960.236 188.918 959.464 189.251 958.706 189.572L958.902 189.507C959.847 189.126 960.781 188.755 961.726 188.373L960.999 188.592ZM972.575 183.65C970.93 184.352 969.284 185.053 967.634 185.76C968.411 185.519 969.207 185.257 969.985 185.014C971.565 184.364 973.173 183.688 974.767 183.023C974.036 183.233 973.304 183.444 972.575 183.65ZM984.053 178.654C982.107 179.516 980.151 180.388 978.235 181.221C979.161 180.952 980.073 180.701 981.001 180.429C983.174 179.521 985.319 178.641 987.501 177.724C986.357 178.028 985.194 178.355 984.053 178.654ZM996.088 173.343L988.741 176.585C990.049 176.236 991.361 175.88 992.674 175.524C995.012 174.53 997.387 173.498 999.755 172.475C998.526 172.773 997.314 173.05 996.088 173.343ZM1008.09 167.958C1005.37 169.196 1002.65 170.433 999.968 171.631C1001.33 171.301 1002.71 170.953 1004.08 170.615C1006.88 169.403 1009.64 168.235 1012.46 167.005C1011 167.324 1009.54 167.647 1008.09 167.958ZM1020.35 162.378C1017.36 163.741 1014.38 165.096 1011.41 166.447C1012.92 166.118 1014.42 165.796 1015.94 165.46C1018.82 164.193 1021.75 162.88 1024.68 161.575C1023.23 161.852 1021.79 162.109 1020.35 162.378ZM1032.74 156.652C1029.54 158.144 1026.36 159.626 1023.21 161.075C1024.75 160.784 1026.29 160.472 1027.83 160.173C1031.03 158.746 1034.2 157.346 1037.42 155.895C1035.86 156.148 1034.29 156.408 1032.74 156.652ZM1045.37 150.733C1041.99 152.326 1038.62 153.904 1035.25 155.474C1036.84 155.222 1038.43 154.966 1040.02 154.704C1043.29 153.222 1046.62 151.685 1049.95 150.155C1048.42 150.354 1046.9 150.542 1045.37 150.733ZM233.272 79.1339C233.889 79.5401 234.508 79.9438 235.122 80.3532C236.506 80.3683 237.889 80.3888 239.272 80.4097C238.62 80.0328 237.966 79.6565 237.311 79.2837C235.966 79.2329 234.619 79.1825 233.272 79.1339ZM230.278 77.1882C230.873 77.5697 231.469 77.9508 232.061 78.3361C233.339 78.3803 234.614 78.4293 235.891 78.4779C235.269 78.1266 234.651 77.7712 234.026 77.4244C232.777 77.3449 231.528 77.2642 230.278 77.1882ZM227.283 75.283C227.846 75.6347 228.402 75.9934 228.961 76.3489C230.131 76.4187 231.297 76.4948 232.465 76.5703C231.873 76.246 231.282 75.9188 230.687 75.5979C229.554 75.4919 228.421 75.383 227.283 75.283ZM224.267 73.4278C224.793 73.7478 225.316 74.0713 225.84 74.3954C226.889 74.4851 227.935 74.5821 228.981 74.679C228.427 74.3835 227.869 74.0918 227.313 73.7988C226.299 73.6729 225.284 73.5473 224.267 73.4278ZM221.275 71.634C221.754 71.9179 222.236 72.1983 222.714 72.4851C223.612 72.5893 224.514 72.6881 225.411 72.7961C224.908 72.5357 224.398 72.2827 223.893 72.0245C223.022 71.8901 222.147 71.7656 221.275 71.634ZM218.321 69.9034C218.725 70.1366 219.129 70.3677 219.531 70.6019C220.268 70.7102 221.001 70.8222 221.737 70.9311C221.326 70.7258 220.918 70.5186 220.507 70.3149C219.778 70.178 219.051 70.0383 218.321 69.9034ZM215.43 68.2583C215.718 68.42 216.002 68.5843 216.289 68.747C216.824 68.8435 217.356 68.941 217.889 69.0408C217.6 68.9 217.313 68.7579 217.024 68.6197C216.493 68.4981 215.962 68.3777 215.43 68.2583ZM212.687 66.748L213.049 66.9463L213.829 67.1152L213.506 66.9659L212.687 66.748ZM940.609 196.243L940.455 196.309L940.639 196.233L940.609 196.243ZM951.684 191.402C950.256 192.026 948.816 192.661 947.394 193.278C947.992 193.086 948.576 192.908 949.174 192.715C950.833 192.023 952.451 191.371 954.123 190.667C953.314 190.907 952.491 191.164 951.684 191.402ZM963.743 186.131C961.715 187.026 959.733 187.877 957.709 188.768C958.684 188.475 959.654 188.185 960.632 187.887C962.567 187.067 964.523 186.225 966.467 185.395C965.551 185.651 964.656 185.879 963.743 186.131ZM975.571 180.811C973.194 181.887 970.809 182.971 968.464 184.019C969.696 183.672 970.949 183.304 972.185 182.953C974.588 181.916 976.975 180.897 979.401 179.838C978.12 180.168 976.847 180.487 975.571 180.811ZM987.743 175.318C985.03 176.548 982.344 177.751 979.633 178.979C980.986 178.63 982.318 178.307 983.679 177.949C986.381 176.765 989.111 175.555 991.836 174.349C990.475 174.669 989.1 175.006 987.743 175.318ZM1000.03 169.637C997.13 170.991 994.214 172.358 991.359 173.669C992.808 173.329 994.259 172.984 995.714 172.638C998.615 171.346 1001.51 170.061 1004.44 168.741C1002.97 169.05 1001.5 169.334 1000.03 169.637ZM1012.58 163.802C1009.39 165.292 1006.22 166.758 1003.03 168.242C1004.59 167.917 1006.15 167.583 1007.72 167.249C1010.83 165.842 1013.98 164.406 1017.12 162.97C1015.61 163.246 1014.09 163.534 1012.58 163.802ZM1025.26 157.785C1021.94 159.377 1018.61 160.98 1015.34 162.517C1016.89 162.236 1018.43 161.955 1019.99 161.666C1023.28 160.154 1026.59 158.638 1029.92 157.09C1028.36 157.33 1026.81 157.554 1025.26 157.785ZM1038.17 151.609C1034.63 153.308 1031.12 154.979 1027.59 156.669C1029.18 156.427 1030.78 156.19 1032.38 155.94C1035.82 154.335 1039.31 152.7 1042.79 151.059C1041.25 151.248 1039.71 151.428 1038.17 151.609ZM227.436 78.9431C228.04 79.395 228.639 79.8523 229.239 80.3087C230.676 80.3174 232.115 80.3214 233.551 80.3339C232.915 79.9122 232.279 79.4905 231.641 79.0738C230.241 79.026 228.838 78.9848 227.436 78.9431ZM224.628 76.8614C225.215 77.2902 225.797 77.7273 226.38 78.1599C227.724 78.1992 229.07 78.2329 230.411 78.2757C229.787 77.873 229.158 77.476 228.531 77.0765C227.232 77.0006 225.929 76.9316 224.628 76.8614ZM221.788 74.8202C222.36 75.2268 222.931 75.6337 223.5 76.0447C224.743 76.1109 225.987 76.1771 227.229 76.2477C226.624 75.8675 226.014 75.4946 225.406 75.1183C224.202 75.0165 222.995 74.9176 221.788 74.8202ZM218.938 72.8193C219.488 73.2002 220.042 73.577 220.589 73.9614C221.721 74.0519 222.85 74.1475 223.979 74.2411C223.408 73.8932 222.838 73.5438 222.264 73.1994C221.157 73.0711 220.049 72.9412 218.938 72.8193ZM216.107 70.878C216.614 71.2193 217.118 71.5657 217.622 71.9109C218.639 72.0206 219.653 72.1357 220.666 72.2517C220.133 71.9359 219.603 71.6165 219.066 71.3035C218.081 71.1591 217.094 71.0173 216.107 70.878ZM213.276 68.9977C213.734 69.2978 214.188 69.6046 214.645 69.9063C215.516 70.0274 216.392 70.1427 217.262 70.2667C216.781 69.9907 216.299 69.7169 215.817 69.4435C214.971 69.2922 214.123 69.1454 213.276 68.9977ZM210.436 67.1716C210.833 67.4233 211.23 67.6743 211.625 67.9292C212.352 68.054 213.077 68.1845 213.803 68.3112C213.391 68.0837 212.976 67.8606 212.562 67.6347C211.854 67.4803 211.148 67.3225 210.436 67.1716ZM207.713 65.4603C208.007 65.6426 208.306 65.8195 208.599 66.0022C209.116 66.1086 209.636 66.2093 210.152 66.3183C209.851 66.1569 209.545 66.0022 209.244 65.8424C208.736 65.7118 208.223 65.5892 207.713 65.4603ZM205.115 63.8744L205.482 64.0985C205.752 64.1641 206.019 64.2328 206.289 64.2994C206.18 64.2437 206.073 64.1861 205.964 64.1298L205.115 63.8744ZM919.174 204.407L917.142 205.285L917.299 205.231C918.028 204.928 918.781 204.603 919.517 204.294L919.174 204.407ZM930.94 199.269C929.69 199.829 928.428 200.399 927.198 200.94L928.36 200.556C929.755 199.967 931.158 199.372 932.546 198.788C932.005 198.954 931.48 199.104 930.94 199.269ZM942.809 193.969C940.875 194.831 938.931 195.703 937 196.563C938.068 196.23 939.15 195.881 940.223 195.545C942.039 194.762 943.899 193.941 945.747 193.13C944.762 193.415 943.79 193.687 942.809 193.969ZM954.977 188.501C952.58 189.593 950.224 190.646 947.848 191.718C948.995 191.383 950.145 191.044 951.296 190.704C953.705 189.651 956.122 188.593 958.531 187.54C957.346 187.861 956.157 188.186 954.977 188.501ZM966.985 182.969C964.387 184.169 961.783 185.374 959.207 186.552C960.591 186.177 961.965 185.814 963.356 185.431C965.922 184.292 968.527 183.116 971.134 181.939C969.751 182.283 968.364 182.631 966.985 182.969ZM979.636 177.129C976.645 178.525 973.719 179.858 970.747 181.237C972.22 180.87 973.711 180.482 975.192 180.106C978.078 178.806 980.967 177.502 983.863 176.193C982.448 176.513 981.046 176.817 979.636 177.129ZM991.996 171.269C988.907 172.739 985.812 174.215 982.763 175.646C984.296 175.301 985.818 174.969 987.358 174.615C990.432 173.211 993.545 171.769 996.665 170.32C995.111 170.633 993.544 170.965 991.996 171.269ZM1004.99 165.111C1001.59 166.732 998.272 168.288 994.895 169.894C996.48 169.578 998.072 169.251 999.664 168.926C1002.94 167.405 1006.23 165.88 1009.52 164.34C1008.01 164.606 1006.5 164.853 1004.99 165.111ZM1017.8 158.877C1014.34 160.571 1010.86 162.274 1007.45 163.916C1009.04 163.642 1010.62 163.375 1012.21 163.092C1015.63 161.485 1019.09 159.841 1022.56 158.187C1020.97 158.419 1019.38 158.653 1017.8 158.877ZM1031.03 152.43C1027.34 154.236 1023.7 155.997 1020.01 157.798C1021.64 157.565 1023.27 157.312 1024.89 157.071C1028.49 155.354 1032.1 153.632 1035.73 151.89C1034.16 152.07 1032.59 152.258 1031.03 152.43ZM221.58 78.7789C222.164 79.2794 222.745 79.7822 223.325 80.2865C224.821 80.2875 226.316 80.2926 227.81 80.3009C227.187 79.8309 226.558 79.3663 225.931 78.8995C224.481 78.8569 223.032 78.8146 221.58 78.7789ZM218.949 76.5652C219.527 77.0464 220.107 77.5235 220.68 78.0091C222.08 78.0407 223.478 78.0781 224.875 78.117C224.266 77.6683 223.656 77.2189 223.043 76.7755C221.681 76.7026 220.316 76.6312 218.949 76.5652ZM216.308 74.3935C216.871 74.8503 217.433 75.3067 217.993 75.7683C219.297 75.8289 220.6 75.8909 221.902 75.9582C221.308 75.5323 220.717 75.1026 220.119 74.6817C218.851 74.5816 217.58 74.4882 216.308 74.3935ZM213.656 72.2634C214.198 72.6913 214.733 73.1282 215.272 73.5596C216.475 73.6467 217.681 73.7304 218.881 73.8224C218.306 73.4209 217.728 73.0216 217.148 72.6245C215.986 72.5017 214.821 72.3824 213.656 72.2634ZM210.951 70.1677C211.475 70.5699 211.997 70.9769 212.519 71.3826C213.627 71.4935 214.732 71.611 215.838 71.7259C215.281 71.3495 214.717 70.9816 214.156 70.6092C213.088 70.4603 212.023 70.3093 210.951 70.1677ZM208.269 68.1478C208.761 68.5135 209.256 68.8761 209.745 69.2464C210.731 69.3736 211.715 69.5052 212.695 69.6391C212.172 69.2969 211.647 68.9578 211.121 68.6191C210.173 68.4579 209.219 68.3039 208.269 68.1478ZM205.589 66.1805C206.038 66.5045 206.488 66.8268 206.934 67.1536C207.78 67.2903 208.626 67.427 209.47 67.5662C209.01 67.2743 208.555 66.978 208.092 66.6896C207.258 66.5196 206.425 66.347 205.589 66.1805ZM202.937 64.2865C203.311 64.5484 203.677 64.8173 204.049 65.0801C204.753 65.2176 205.452 65.3618 206.153 65.5045C205.755 65.2614 205.358 65.0154 204.958 64.7735C204.286 64.6093 203.611 64.4476 202.937 64.2865ZM200.316 62.4893L201.166 63.071C201.674 63.1885 202.182 63.3067 202.689 63.4265L201.812 62.9134L200.316 62.4893ZM197.813 60.8141L198.224 61.0823L198.988 61.2917L198.596 61.074L197.813 60.8141ZM910.022 207.324C908.757 207.892 907.498 208.456 906.249 209.011L907.544 208.567C908.842 208.012 910.163 207.435 911.47 206.87C910.985 207.025 910.506 207.17 910.022 207.324ZM921.876 201.984C919.926 202.861 917.964 203.747 916.014 204.624C916.918 204.333 917.85 204.015 918.758 203.72C920.783 202.84 922.774 201.992 924.805 201.107C923.827 201.401 922.85 201.694 921.876 201.984ZM933.857 196.524C931.657 197.54 929.456 198.558 927.289 199.546C928.39 199.212 929.471 198.899 930.577 198.561C932.828 197.566 935.119 196.533 937.4 195.512C936.224 195.844 935.028 196.198 933.857 196.524ZM946.297 190.779C943.68 191.99 941.07 193.193 938.459 194.398C939.78 194.025 941.105 193.645 942.432 193.264C945.042 192.094 947.62 190.953 950.235 189.778C948.91 190.126 947.615 190.439 946.297 190.779ZM958.734 184.937C955.855 186.303 952.966 187.678 950.131 189.003C951.606 188.616 953.113 188.195 954.595 187.799C957.376 186.534 960.209 185.217 963.033 183.911C961.597 184.257 960.163 184.598 958.734 184.937ZM971.431 178.934C968.306 180.424 965.239 181.859 962.135 183.329C963.631 182.969 965.113 182.628 966.617 182.26C969.754 180.812 972.866 179.387 976.01 177.932C974.485 178.264 972.949 178.61 971.431 178.934ZM984.254 172.737C980.958 174.336 977.659 175.938 974.407 177.498C976.019 177.149 977.646 176.78 979.265 176.422C982.425 174.943 985.655 173.398 988.87 171.867C987.325 172.164 985.792 172.447 984.254 172.737ZM997.292 166.4C993.807 168.108 990.36 169.779 986.909 171.453C988.484 171.153 990.046 170.868 991.628 170.558C995.113 168.904 998.577 167.27 1002.07 165.605C1000.48 165.87 998.881 166.145 997.292 166.4ZM1010.52 159.869C1006.88 161.674 1003.24 163.472 999.641 165.241C1001.3 164.969 1002.96 164.678 1004.62 164.396C1008.12 162.716 1011.69 160.964 1015.26 159.223C1013.68 159.442 1012.1 159.659 1010.52 159.869ZM1023.94 153.176C1020.16 155.073 1016.4 156.958 1012.67 158.81C1014.26 158.593 1015.85 158.383 1017.44 158.158C1021.19 156.33 1024.91 154.526 1028.68 152.684C1027.09 152.856 1025.52 153.014 1023.94 153.176ZM215.719 78.6614C216.278 79.2067 216.838 79.7504 217.393 80.3009C218.923 80.2929 220.451 80.2913 221.979 80.2897C221.385 79.7755 220.794 79.2598 220.195 78.752C218.704 78.7196 217.213 78.6887 215.719 78.6614ZM213.282 76.3103C213.835 76.835 214.383 77.3645 214.93 77.8939C216.379 77.9182 217.825 77.9497 219.272 77.9807C218.682 77.4855 218.091 76.9914 217.497 76.5004C216.093 76.4345 214.689 76.3689 213.282 76.3103ZM210.826 74.0024C211.368 74.5033 211.902 75.0122 212.439 75.5185C213.806 75.5734 215.169 75.6381 216.533 75.7025C215.949 75.2245 215.358 74.7544 214.769 74.2812C213.457 74.186 212.143 74.0907 210.826 74.0024ZM208.336 71.7432C208.87 72.2225 209.404 72.7041 209.933 73.1891C211.202 73.2718 212.469 73.3582 213.733 73.4478C213.16 72.992 212.582 72.5423 212.005 72.0923C210.785 71.9711 209.56 71.8583 208.336 71.7432ZM205.822 69.5208C206.348 69.9786 206.877 70.4315 207.399 70.8944C208.558 71.0023 209.718 71.1054 210.874 71.2165C210.325 70.7934 209.778 70.3677 209.225 69.9493C208.092 69.8043 206.959 69.6608 205.822 69.5208ZM203.301 67.3511C203.801 67.7727 204.296 68.1982 204.791 68.6233C205.859 68.7532 206.921 68.8902 207.985 69.0259C207.456 68.6306 206.931 68.2328 206.398 67.843C205.368 67.6762 204.337 67.5103 203.301 67.3511ZM200.785 65.2493C201.251 65.6313 201.709 66.0216 202.172 66.4074C203.121 66.5512 204.071 66.6931 205.017 66.8426C204.517 66.4806 204.015 66.1225 203.51 65.7653C202.604 65.5897 201.694 65.4208 200.785 65.2493ZM198.214 63.1835C198.648 63.5281 199.081 63.8734 199.511 64.2215C200.343 64.3756 201.172 64.5355 202 64.6921C201.541 64.372 201.073 64.0599 200.611 63.7429C199.813 63.5554 199.016 63.3653 198.214 63.1835ZM195.711 61.229C196.084 61.5153 196.461 61.7952 196.831 62.0841C197.497 62.2312 198.166 62.3736 198.828 62.5242C198.44 62.2633 198.05 62.0065 197.66 61.7472C197.013 61.5709 196.36 61.4021 195.711 61.229ZM193.244 59.3509C193.522 59.5573 193.796 59.7696 194.074 59.9783C194.568 60.107 195.058 60.2417 195.552 60.3713C195.268 60.1886 194.99 60.0006 194.705 59.8188C194.217 59.6641 193.733 59.503 193.244 59.3509ZM190.893 57.6373L191.289 57.9268L192.03 58.149L191.641 57.9062C191.393 57.8162 191.142 57.7277 190.893 57.6373ZM888.753 215.647C887.521 216.206 886.277 216.777 885.061 217.322C885.57 217.145 886.093 216.954 886.604 216.777C887.854 216.235 889.134 215.667 890.399 215.112L888.753 215.647ZM900.617 210.264L895.177 212.733C896.01 212.458 896.823 212.203 897.66 211.925C899.605 211.07 901.54 210.225 903.489 209.366C902.536 209.661 901.566 209.973 900.617 210.264ZM912.746 204.679C910.607 205.676 908.459 206.683 906.347 207.652C907.478 207.3 908.605 206.949 909.741 206.591C911.867 205.641 914.03 204.661 916.179 203.689C915.029 204.027 913.892 204.349 912.746 204.679ZM925.316 198.84C922.677 200.074 920.08 201.27 917.454 202.493C918.819 202.091 920.208 201.664 921.581 201.256C924.146 200.094 926.685 198.958 929.272 197.775C927.945 198.138 926.636 198.483 925.316 198.84ZM937.702 192.964C934.888 194.305 932.067 195.652 929.285 196.964C930.708 196.573 932.117 196.199 933.547 195.801C936.387 194.497 939.253 193.169 942.116 191.842C940.645 192.215 939.166 192.6 937.702 192.964ZM950.502 186.855C947.42 188.338 944.38 189.784 941.325 191.242C942.872 190.85 944.416 190.462 945.972 190.061C948.964 188.667 951.977 187.253 955.008 185.825C953.499 186.175 952.002 186.513 950.502 186.855ZM963.408 180.588C960.109 182.195 956.815 183.797 953.546 185.376C955.153 185.005 956.79 184.599 958.405 184.218C961.645 182.689 964.889 181.156 968.146 179.611C966.562 179.943 964.985 180.266 963.408 180.588ZM976.466 174.184C973.033 175.881 969.616 177.563 966.224 179.22C967.85 178.882 969.462 178.564 971.095 178.216C974.446 176.615 977.861 174.952 981.266 173.301C979.664 173.597 978.06 173.897 976.466 174.184ZM989.821 167.566C986.178 169.379 982.563 171.166 978.944 172.956C980.595 172.655 982.261 172.329 983.918 172.017C987.502 170.282 991.055 168.574 994.669 166.81C993.05 167.068 991.435 167.318 989.821 167.566ZM1003.26 160.807C999.52 162.699 995.779 164.597 992.1 166.437C993.72 166.183 995.332 165.941 996.958 165.679C1000.62 163.885 1004.33 162.047 1008.04 160.208C1006.44 160.417 1004.85 160.607 1003.26 160.807ZM1016.96 153.875C1013.03 155.876 1009.16 157.818 1005.26 159.793C1006.9 159.585 1008.54 159.367 1010.18 159.149C1014 157.251 1017.84 155.343 1021.7 153.407C1020.12 153.568 1018.54 153.724 1016.96 153.875ZM209.846 78.5779C210.371 79.1645 210.89 79.7569 211.41 80.3498C212.978 80.3345 214.548 80.3142 216.115 80.3033C215.547 79.7437 214.975 79.1898 214.403 78.6353C212.886 78.6112 211.366 78.5953 209.846 78.5779ZM207.597 76.0992C208.12 76.6684 208.638 77.242 209.156 77.8169C210.643 77.8338 212.132 77.8459 213.616 77.8685C213.05 77.3251 212.48 76.7903 211.91 76.2529C210.475 76.1972 209.036 76.1495 207.597 76.0992ZM205.31 73.6571C205.834 74.2094 206.359 74.7608 206.878 75.3189C208.278 75.3661 209.677 75.4174 211.077 75.469C210.519 74.9485 209.961 74.4285 209.399 73.9131C208.038 73.8255 206.676 73.7376 205.31 73.6571ZM203.008 71.2617C203.524 71.7896 204.041 72.3175 204.551 72.8522C205.871 72.928 207.186 73.0141 208.5 73.0995C207.95 72.6005 207.405 72.099 206.851 71.6057C205.573 71.4881 204.293 71.3716 203.008 71.2617ZM200.693 68.9167C201.199 69.418 201.697 69.9273 202.197 70.4343C203.426 70.5379 204.653 70.6432 205.878 70.7544C205.333 70.2738 204.784 69.7958 204.233 69.3213C203.057 69.1804 201.873 69.0506 200.693 68.9167ZM198.333 66.6084C198.829 67.0843 199.318 67.5685 199.807 68.0498C200.944 68.1768 202.079 68.3047 203.213 68.4374C202.683 67.9853 202.143 67.5447 201.609 67.0981C200.518 66.9333 199.43 66.7653 198.333 66.6084ZM195.961 64.367C196.435 64.8103 196.911 65.2516 197.382 65.6984C198.418 65.8455 199.449 66.0006 200.48 66.1547C199.969 65.7331 199.452 65.3169 198.937 64.9001C197.948 64.7173 196.954 64.5431 195.961 64.367ZM193.566 62.1705C194.022 62.5811 194.48 62.9879 194.932 63.4035C195.843 63.5617 196.755 63.7179 197.663 63.8811C197.192 63.5061 196.724 63.1273 196.25 62.756C195.355 62.5607 194.464 62.3613 193.566 62.1705ZM191.197 60.0574C191.601 60.4093 191.998 60.7695 192.399 61.125C193.2 61.2919 193.995 61.4664 194.791 61.64C194.352 61.3039 193.916 60.9669 193.475 60.6347C192.719 60.4379 191.957 60.2484 191.197 60.0574ZM188.801 58.009C189.157 58.3084 189.508 58.6134 189.862 58.9153C190.512 59.0764 191.164 59.2372 191.814 59.4002C191.438 59.1238 191.059 58.8489 190.682 58.574C190.054 58.3862 189.43 58.1946 188.801 58.009ZM186.459 56.0742C186.729 56.2937 187 56.5126 187.268 56.7337C187.746 56.8713 188.223 57.0076 188.698 57.1468C188.405 56.9404 188.107 56.738 187.812 56.5322C187.364 56.3755 186.908 56.228 186.459 56.0742ZM184.245 54.2897C184.384 54.3999 184.527 54.5056 184.667 54.6168C184.913 54.6986 185.157 54.7836 185.404 54.8657C185.263 54.7713 185.12 54.6808 184.979 54.5862C184.734 54.4879 184.49 54.387 184.245 54.2897ZM867.167 224.226C866.008 224.754 864.836 225.293 863.685 225.814C864.119 225.66 864.538 225.52 864.973 225.366C866.22 224.82 867.497 224.248 868.757 223.69C868.229 223.866 867.693 224.051 867.167 224.226ZM879.21 218.735C877.505 219.518 875.834 220.27 874.137 221.048C874.962 220.768 875.78 220.498 876.608 220.216C878.372 219.432 880.113 218.669 881.882 217.881C880.994 218.163 880.095 218.455 879.21 218.735ZM891.525 213.006C889.367 214.015 887.198 215.032 885.058 216.024C886.204 215.656 887.365 215.273 888.517 214.899C890.615 213.953 892.742 212.981 894.858 212.021C893.738 212.358 892.64 212.674 891.525 213.006ZM904.043 207.139C901.44 208.372 898.875 209.568 896.295 210.78C897.632 210.374 898.991 209.947 900.336 209.534C902.887 208.368 905.43 207.209 908.007 206.019C906.683 206.396 905.36 206.771 904.043 207.139ZM916.442 201.226C913.698 202.537 910.951 203.85 908.224 205.146C909.642 204.742 911.042 204.358 912.468 203.945C915.267 202.648 918.083 201.338 920.896 200.028C919.417 200.421 917.913 200.842 916.442 201.226ZM929.368 194.996C926.336 196.471 923.315 197.935 920.322 199.375C921.88 198.962 923.45 198.535 925.017 198.112C927.924 196.747 930.874 195.342 933.822 193.938C932.325 194.305 930.857 194.639 929.368 194.996ZM942.369 188.664C939.089 190.268 935.831 191.851 932.568 193.438C934.166 193.048 935.776 192.645 937.384 192.244C940.643 190.693 943.869 189.172 947.15 187.6C945.554 187.959 943.957 188.316 942.369 188.664ZM955.454 182.189C952.074 183.874 948.683 185.567 945.353 187.207C946.964 186.849 948.567 186.499 950.187 186.131C953.516 184.527 956.89 182.88 960.263 181.237C958.656 181.559 957.053 181.876 955.454 182.189ZM968.882 175.504C965.235 177.333 961.645 179.11 958.028 180.91C959.7 180.579 961.397 180.213 963.078 179.87C966.611 178.145 970.144 176.421 973.715 174.663C972.101 174.948 970.49 175.228 968.882 175.504ZM982.355 168.685C978.63 170.577 974.912 172.463 971.23 174.315C972.867 174.031 974.496 173.756 976.14 173.461C979.814 171.648 983.503 169.819 987.211 167.973C985.588 168.219 983.973 168.449 982.355 168.685ZM996.048 161.7C992.166 163.693 988.313 165.66 984.476 167.612C986.141 167.365 987.817 167.101 989.488 166.844C993.267 164.957 997.088 163.032 1000.92 161.096C999.296 161.296 997.666 161.509 996.048 161.7ZM1009.98 154.522C1005.96 156.601 1001.98 158.647 998.004 160.692C999.64 160.496 1001.28 160.289 1002.92 160.082C1006.89 158.079 1010.82 156.105 1014.81 154.074C1013.2 154.226 1011.59 154.379 1009.98 154.522ZM203.936 78.5223C204.427 79.1538 204.915 79.7871 205.4 80.4243C207.004 80.3994 208.604 80.3802 210.204 80.3623C209.67 79.7608 209.136 79.1596 208.598 78.5631C207.046 78.5454 205.492 78.5308 203.936 78.5223ZM201.876 75.9199C202.369 76.5358 202.868 77.1469 203.356 77.7685C204.875 77.7761 206.392 77.7879 207.908 77.8034C207.378 77.219 206.85 76.6314 206.313 76.0537C204.837 76.0054 203.357 75.9606 201.876 75.9199ZM199.792 73.3562C200.284 73.9511 200.774 74.5477 201.26 75.1496C202.701 75.1885 204.141 75.2276 205.578 75.2732C205.046 74.7049 204.516 74.1371 203.979 73.5758C202.587 73.4969 201.188 73.4288 199.792 73.3562ZM197.681 70.8275C198.17 71.4008 198.651 71.9847 199.134 72.5651C200.496 72.6333 201.858 72.704 203.218 72.7779C202.689 72.2303 202.155 71.69 201.621 71.1488C200.31 71.0383 198.998 70.9294 197.681 70.8275ZM195.532 68.3518C196.014 68.901 196.493 69.4545 196.971 70.0094C198.255 70.1066 199.533 70.2153 200.811 70.3217C200.285 69.7934 199.753 69.2716 199.222 68.7497C197.994 68.6124 196.764 68.4815 195.532 68.3518ZM193.353 65.9216C193.834 66.4515 194.318 66.9766 194.795 67.5125C195.977 67.6334 197.159 67.754 198.337 67.8828C197.824 67.3831 197.311 66.884 196.793 66.3907C195.649 66.231 194.501 66.0752 193.353 65.9216ZM191.151 63.539C191.62 64.0382 192.09 64.5366 192.554 65.0412C193.648 65.1857 194.739 65.3365 195.83 65.4877C195.331 65.0181 194.835 64.546 194.332 64.0819C193.274 63.8976 192.214 63.7147 191.151 63.539ZM188.947 61.2209C189.395 61.6816 189.834 62.1516 190.278 62.6174C191.273 62.7799 192.269 62.942 193.261 63.1108C192.774 62.6698 192.286 62.2326 191.794 61.796C190.848 61.6008 189.897 61.4116 188.947 61.2209ZM186.687 58.9485C187.114 59.3722 187.536 59.8006 187.959 60.2287C188.856 60.4047 189.748 60.5892 190.642 60.7702C190.179 60.366 189.707 59.971 189.24 59.5715C188.391 59.3609 187.541 59.1522 186.687 58.9485ZM184.433 56.7597C184.829 57.1393 185.228 57.5141 185.621 57.8972C186.382 58.0746 187.148 58.2469 187.906 58.4288C187.486 58.0772 187.063 57.7297 186.64 57.381C185.906 57.1714 185.171 56.9654 184.433 56.7597ZM182.19 54.6473C182.531 54.9625 182.875 55.2753 183.213 55.5921C183.843 55.7637 184.467 55.9452 185.093 56.1216C184.734 55.8311 184.38 55.5352 184.018 55.2483C183.411 55.0461 182.802 54.8453 182.19 54.6473ZM180.003 52.6576C180.26 52.8861 180.512 53.1224 180.768 53.3527C181.22 53.4967 181.674 53.6378 182.124 53.7834C181.853 53.5737 181.584 53.3609 181.311 53.1535C180.875 52.9872 180.44 52.8213 180.003 52.6576ZM177.856 50.7914L178.253 51.1351C178.478 51.2166 178.705 51.2947 178.929 51.3771L178.507 51.0677C178.292 50.9732 178.072 50.8856 177.856 50.7914ZM845.333 233.03C844.379 233.464 843.416 233.908 842.463 234.342C842.867 234.197 843.263 234.058 843.667 233.911C844.686 233.461 845.726 232.993 846.751 232.538C846.284 232.698 845.8 232.871 845.333 233.03ZM857.835 227.283C856.18 228.055 854.547 228.808 852.909 229.564C853.705 229.288 854.506 229.008 855.305 228.729C857.003 227.969 858.66 227.246 860.37 226.474C859.517 226.753 858.686 227.009 857.835 227.283ZM870.126 221.532C867.922 222.561 865.708 223.601 863.506 224.63C864.648 224.254 865.828 223.843 866.975 223.461C869.122 222.486 871.288 221.492 873.442 220.511C872.333 220.855 871.23 221.192 870.126 221.532ZM882.504 215.674C880.076 216.836 877.645 218.001 875.252 219.132C876.501 218.742 877.722 218.381 878.978 217.985C881.463 216.839 883.977 215.668 886.497 214.492C885.17 214.882 883.824 215.29 882.504 215.674ZM895.227 209.59C892.46 210.919 889.722 212.221 886.967 213.539C888.395 213.119 889.821 212.699 891.257 212.27C894 210.989 896.726 209.723 899.482 208.429C898.058 208.823 896.643 209.205 895.227 209.59ZM908.066 203.343C905.054 204.817 902.035 206.298 899.063 207.737C900.616 207.308 902.202 206.845 903.764 206.408C906.668 205.033 909.615 203.619 912.556 202.211C911.05 202.598 909.563 202.966 908.066 203.343ZM921.094 196.964C917.863 198.558 914.676 200.112 911.474 201.68C913.037 201.279 914.574 200.909 916.146 200.498C919.376 198.949 922.6 197.408 925.863 195.83C924.274 196.206 922.673 196.598 921.094 196.964ZM934.295 190.396C930.904 192.088 927.52 193.775 924.162 195.437C925.79 195.055 927.422 194.666 929.06 194.272C932.376 192.663 935.712 191.036 939.057 189.401C937.459 189.745 935.884 190.062 934.295 190.396ZM947.686 183.671C944.107 185.481 940.544 187.277 937.01 189.045C938.682 188.689 940.373 188.309 942.053 187.941C945.531 186.234 949.047 184.49 952.572 182.739C950.941 183.054 949.31 183.367 947.686 183.671ZM961.293 176.777C957.566 178.673 953.869 180.542 950.167 182.414C951.822 182.099 953.47 181.792 955.133 181.466C958.817 179.636 962.475 177.83 966.188 175.973C964.551 176.25 962.924 176.511 961.293 176.777ZM974.993 169.733C971.157 171.717 967.308 173.712 963.531 175.642C965.199 175.366 966.882 175.068 968.557 174.781C972.304 172.898 976.109 170.964 979.909 169.033C978.27 169.267 976.626 169.509 974.993 169.733ZM989.003 162.489C984.993 164.575 981.036 166.611 977.06 168.667C978.714 168.435 980.369 168.201 982.029 167.959C985.948 165.967 989.864 163.98 993.822 161.952C992.213 162.138 990.609 162.312 989.003 162.489ZM1003.09 155.105C998.987 157.263 994.899 159.41 990.853 161.52C992.474 161.337 994.09 161.167 995.716 160.976C999.743 158.91 1003.79 156.823 1007.86 154.714C1006.27 154.853 1004.68 154.974 1003.09 155.105ZM198.001 78.5062C198.456 79.1821 198.911 79.8559 199.361 80.5369C200.989 80.5021 202.614 80.4727 204.239 80.4459C203.746 79.8005 203.254 79.1554 202.755 78.5186C201.172 78.5114 199.588 78.5051 198.001 78.5062ZM196.136 75.773C196.592 76.4295 197.044 77.0912 197.494 77.7532C199.051 77.7519 200.605 77.7582 202.158 77.7658C201.66 77.1362 201.159 76.5121 200.656 75.8879C199.152 75.8463 197.646 75.8044 196.136 75.773ZM194.252 73.0893C194.707 73.7237 195.151 74.3698 195.601 75.0105C197.084 75.0401 198.562 75.0782 200.041 75.1173C199.54 74.5021 199.031 73.8977 198.525 73.2894C197.103 73.2181 195.678 73.1523 194.252 73.0893ZM192.313 70.4415C192.772 71.0616 193.229 71.6839 193.682 72.3097C195.078 72.369 196.475 72.4292 197.866 72.498C197.368 71.9043 196.866 71.3141 196.361 70.7259C195.015 70.6272 193.664 70.5342 192.313 70.4415ZM190.34 67.8275C190.803 68.4317 191.269 69.0309 191.726 69.6414C193.039 69.7303 194.35 69.8237 195.659 69.917C195.166 69.349 194.677 68.7763 194.177 68.2144C192.9 68.082 191.624 67.9492 190.34 67.8275ZM188.359 65.2799C188.813 65.8527 189.264 66.429 189.712 67.0081C190.95 67.1238 192.184 67.2471 193.415 67.3717C192.92 66.8202 192.423 66.272 191.924 65.7269C190.74 65.5727 189.549 65.4274 188.359 65.2799ZM186.343 62.7672C186.793 63.3139 187.231 63.8734 187.675 64.4262C188.823 64.5672 189.973 64.7043 191.118 64.8506C190.631 64.3274 190.137 63.8137 189.646 63.2974C188.546 63.1187 187.448 62.9374 186.343 62.7672ZM184.282 60.3184C184.721 60.8328 185.157 61.3513 185.591 61.8727C186.655 62.0347 187.714 62.2063 188.773 62.3765C188.291 61.878 187.802 61.3847 187.315 60.8913C186.309 60.6943 185.294 60.5074 184.282 60.3184ZM182.187 57.9086C182.621 58.3989 183.06 58.8845 183.489 59.3811C184.44 59.5563 185.394 59.7302 186.341 59.9112C185.886 59.4574 185.432 59.0014 184.971 58.5518C184.045 58.3359 183.12 58.1169 182.187 57.9086ZM180.101 55.5878C180.506 56.0283 180.908 56.4694 181.307 56.9144C182.163 57.1021 183.015 57.2956 183.865 57.4916C183.426 57.0705 182.991 56.6453 182.548 56.229C181.737 56.0097 180.917 55.8029 180.101 55.5878ZM177.986 53.3155C178.36 53.7078 178.724 54.1103 179.095 54.5065C179.834 54.6966 180.569 54.8915 181.306 55.0855C180.905 54.717 180.502 54.3495 180.097 53.9849C179.393 53.7613 178.695 53.5324 177.986 53.3155ZM175.869 51.154C176.194 51.4813 176.517 51.8103 176.838 52.1411C177.44 52.3217 178.044 52.4962 178.641 52.6802C178.289 52.3698 177.93 52.0663 177.575 51.759C177.008 51.5543 176.438 51.3546 175.869 51.154ZM173.766 49.0728C174.023 49.3218 174.283 49.5661 174.538 49.8171C174.988 49.9725 175.43 50.1346 175.877 50.2926C175.597 50.0572 175.31 49.8301 175.029 49.5979C174.608 49.4228 174.189 49.2451 173.766 49.0728ZM171.835 47.2141C171.959 47.3298 172.078 47.4502 172.202 47.5671L172.865 47.8288C172.737 47.7271 172.613 47.6207 172.485 47.5193L171.835 47.2141ZM823.896 241.756L821.004 243.081L822.041 242.7C823.014 242.266 824 241.822 824.974 241.388C824.611 241.515 824.258 241.63 823.896 241.756ZM836.16 236.059C834.523 236.828 832.872 237.607 831.252 238.36C832.079 238.069 832.928 237.756 833.758 237.462C835.379 236.73 837.014 235.985 838.654 235.235C837.819 235.514 836.992 235.783 836.16 236.059ZM848.556 230.248C846.401 231.266 844.291 232.245 842.148 233.252C843.163 232.911 844.144 232.601 845.164 232.255C847.388 231.236 849.605 230.226 851.838 229.2C850.746 229.548 849.643 229.905 848.556 230.248ZM860.812 224.388C858.469 225.511 856.115 226.644 853.791 227.751C855.07 227.341 856.339 226.942 857.624 226.526C859.981 225.431 862.376 224.302 864.76 223.184C863.449 223.58 862.116 223.999 860.812 224.388ZM873.756 218.159C870.998 219.498 868.272 220.81 865.543 222.123C866.976 221.689 868.432 221.233 869.874 220.789C872.553 219.529 875.216 218.283 877.921 217.001C876.52 217.399 875.15 217.766 873.756 218.159ZM886.619 211.874C883.61 213.348 880.603 214.819 877.613 216.274C879.141 215.838 880.682 215.388 882.22 214.942C885.182 213.532 888.164 212.102 891.146 210.672C889.633 211.077 888.123 211.479 886.619 211.874ZM899.553 205.485C896.434 207.038 893.317 208.591 890.242 210.104C891.812 209.686 893.364 209.285 894.944 208.856C898.056 207.355 901.208 205.818 904.364 204.277C902.766 204.673 901.142 205.098 899.553 205.485ZM913 198.789C909.577 200.504 906.202 202.175 902.803 203.866C904.447 203.461 906.112 203.032 907.767 202.615C911.097 200.988 914.402 199.386 917.757 197.737C916.159 198.102 914.589 198.435 913 198.789ZM926.326 192.041C922.805 193.832 919.279 195.627 915.807 197.374C917.46 197.001 919.111 196.628 920.774 196.243C924.238 194.533 927.754 192.775 931.264 191.021C929.618 191.362 927.963 191.712 926.326 192.041ZM939.999 185.078C936.291 186.978 932.624 188.843 928.956 190.709C930.626 190.367 932.298 190.024 933.977 189.671C937.595 187.864 941.218 186.052 944.877 184.208C943.242 184.509 941.626 184.787 939.999 185.078ZM953.766 177.977C949.924 179.966 946.096 181.941 942.294 183.895C943.974 183.59 945.667 183.267 947.356 182.951C951.129 181.045 954.919 179.124 958.729 177.186C957.074 177.451 955.414 177.723 953.766 177.977ZM967.759 170.689C963.802 172.761 959.852 174.827 955.948 176.852C957.618 176.59 959.288 176.325 960.966 176.052C964.813 174.088 968.713 172.076 972.616 170.063C970.99 170.282 969.379 170.478 967.759 170.689ZM981.947 163.251C977.837 165.416 973.78 167.535 969.705 169.669C971.355 169.451 973.004 169.236 974.66 169.008C978.712 166.918 982.733 164.857 986.821 162.732C985.195 162.909 983.568 163.083 981.947 163.251ZM996.228 155.653C992.04 157.891 987.843 160.135 983.724 162.313C985.367 162.139 987.021 161.944 988.67 161.763C992.755 159.635 996.899 157.454 1001.05 155.272C999.44 155.401 997.832 155.531 996.228 155.653ZM192.049 78.5345C192.461 79.248 192.868 79.9682 193.275 80.6883C194.929 80.644 196.585 80.5964 198.237 80.5575C197.78 79.8679 197.316 79.1869 196.854 78.5033C195.255 78.5082 193.651 78.5239 192.049 78.5345ZM190.375 75.6778C190.791 76.3748 191.199 77.081 191.61 77.7852C193.19 77.7743 194.771 77.7606 196.349 77.7551C195.891 77.0833 195.425 76.4181 194.961 75.7536C193.434 75.7257 191.906 75.6991 190.375 75.6778ZM188.655 72.8587C189.078 73.5416 189.499 74.2268 189.915 74.9171C191.422 74.9368 192.924 74.9635 194.426 74.9918C193.966 74.3381 193.505 73.6853 193.039 73.0389C191.579 72.975 190.12 72.9124 188.655 72.8587ZM186.916 70.0944C187.34 70.7577 187.766 71.4185 188.184 72.0881C189.616 72.1394 191.043 72.1983 192.469 72.2584C192.005 71.6222 191.544 70.9834 191.074 70.3548C189.691 70.2622 188.304 70.1785 186.916 70.0944ZM185.141 67.3627C185.568 68.0066 185.99 68.6553 186.41 69.3068C187.763 69.3874 189.119 69.4648 190.468 69.5531C190.002 68.9362 189.532 68.3231 189.06 67.7125C187.756 67.5932 186.45 67.4747 185.141 67.3627ZM183.34 64.6839C183.764 65.3008 184.178 65.9274 184.596 66.552C185.879 66.6603 187.156 66.7769 188.433 66.8944C187.966 66.295 187.488 65.707 187.014 65.1152C185.793 64.9671 184.568 64.8224 183.34 64.6839ZM181.486 62.0522C181.912 62.6492 182.338 63.2487 182.758 63.8526C183.951 63.9859 185.143 64.1191 186.33 64.2606C185.866 63.6891 185.4 63.1198 184.929 62.5537C183.784 62.3826 182.636 62.2166 181.486 62.0522ZM179.601 59.4676C180.027 60.0398 180.455 60.6066 180.874 61.1858C181.98 61.3414 183.082 61.5052 184.184 61.6681C183.729 61.1267 183.277 60.5797 182.817 60.045C181.748 59.8484 180.676 59.6553 179.601 59.4676ZM177.699 56.9439C178.113 57.4819 178.524 58.0242 178.933 58.5673C179.951 58.7424 180.97 58.9175 181.982 59.1008C181.533 58.5877 181.086 58.0768 180.631 57.5706C179.655 57.3596 178.679 57.1495 177.699 56.9439ZM175.768 54.4812C176.166 54.976 176.553 55.4823 176.946 55.9834C177.881 56.1761 178.81 56.3786 179.738 56.5796C179.298 56.0963 178.849 55.6216 178.403 55.1434C177.529 54.9182 176.649 54.6991 175.768 54.4812ZM173.785 52.0751C174.171 52.5366 174.555 52.9997 174.936 53.4669C175.758 53.6661 176.584 53.859 177.4 54.0649C176.986 53.6279 176.562 53.2017 176.143 52.7711C175.357 52.5381 174.575 52.303 173.785 52.0751ZM171.803 49.7553C172.159 50.1632 172.521 50.5651 172.873 50.9781C173.583 51.1781 174.286 51.3874 174.99 51.5957C174.602 51.205 174.214 50.8137 173.822 50.4268C173.153 50.1968 172.475 49.9796 171.803 49.7553ZM169.819 47.5108C170.131 47.8556 170.441 48.2045 170.751 48.5532C171.325 48.7408 171.896 48.9306 172.468 49.1201C172.138 48.8038 171.815 48.4822 171.482 48.1692C170.926 47.9508 170.377 47.7254 169.819 47.5108ZM167.874 45.4144C168.109 45.6628 168.339 45.9161 168.572 46.1664C168.979 46.3187 169.392 46.464 169.797 46.6195C169.544 46.3876 169.291 46.1554 169.037 45.9263C168.652 45.7527 168.261 45.5855 167.874 45.4144ZM165.945 43.4221L166.336 43.8195C166.547 43.9089 166.752 44.0042 166.963 44.0955L166.541 43.7331C166.341 43.6312 166.146 43.5243 165.945 43.4221ZM802.339 250.638C801.272 251.135 800.239 251.603 799.18 252.093L799.858 251.839L803.244 250.322L802.339 250.638ZM814.32 245.017C812.682 245.784 811.03 246.564 809.394 247.33C810.146 247.059 810.887 246.801 811.642 246.528C813.319 245.766 815.026 244.976 816.717 244.2C815.92 244.472 815.115 244.749 814.32 245.017ZM826.572 239.226C824.638 240.152 822.71 241.073 820.802 241.977C821.797 241.636 822.774 241.31 823.774 240.964C825.856 240.003 827.911 239.067 830.013 238.09C828.875 238.46 827.705 238.861 826.572 239.226ZM839.291 233.133C836.903 234.279 834.519 235.42 832.135 236.561C833.411 236.143 834.697 235.716 835.979 235.29C838.275 234.217 840.591 233.126 842.894 232.047C841.677 232.424 840.501 232.761 839.291 233.133ZM852.066 226.926C849.344 228.259 846.611 229.603 843.929 230.902C845.38 230.45 846.876 229.954 848.335 229.495C850.946 228.257 853.598 226.984 856.249 225.712C854.847 226.124 853.46 226.522 852.066 226.926ZM865.023 220.587C862.048 222.054 859.128 223.472 856.176 224.917C857.649 224.484 859.089 224.084 860.571 223.642C863.585 222.197 866.569 220.778 869.604 219.314C868.08 219.736 866.538 220.175 865.023 220.587ZM878.049 214.102C874.925 215.662 871.799 217.222 868.709 218.752C870.297 218.313 871.887 217.873 873.485 217.424C876.536 215.942 879.629 214.424 882.717 212.91C881.155 213.315 879.602 213.707 878.049 214.102ZM891.422 207.395C888.031 209.108 884.663 210.8 881.312 212.477C882.969 212.05 884.667 211.58 886.335 211.142C889.614 209.531 892.904 207.912 896.223 206.267C894.613 206.653 893.022 207.02 891.422 207.395ZM904.837 200.595C901.332 202.376 897.843 204.144 894.364 205.904C896.003 205.514 897.615 205.153 899.264 204.752C902.77 203.01 906.289 201.258 909.823 199.492C908.165 199.856 906.487 200.241 904.837 200.595ZM918.524 193.57C914.872 195.456 911.211 197.35 907.614 199.187C909.298 198.821 910.994 198.442 912.688 198.064C916.219 196.291 919.811 194.463 923.396 192.642C921.759 192.967 920.152 193.256 918.524 193.57ZM932.387 186.413C928.541 188.411 924.754 190.356 920.944 192.322C922.627 191.992 924.316 191.658 926.01 191.316C929.796 189.395 933.561 187.491 937.384 185.536C935.718 185.829 934.046 186.131 932.387 186.413ZM946.375 179.082C942.443 181.15 938.509 183.218 934.627 185.239C936.307 184.948 937.99 184.655 939.678 184.353C943.508 182.389 947.386 180.382 951.266 178.374C949.627 178.623 948.008 178.843 946.375 179.082ZM960.535 171.615C956.472 173.769 952.434 175.902 948.42 178.011C950.09 177.763 951.763 177.512 953.44 177.252C957.43 175.185 961.448 173.093 965.488 170.981C963.839 171.191 962.179 171.415 960.535 171.615ZM974.948 163.945C970.754 166.185 966.585 168.403 962.434 170.605C964.095 170.399 965.767 170.177 967.434 169.961C971.549 167.808 975.672 165.649 979.827 163.461C978.199 163.625 976.572 163.789 974.948 163.945ZM989.467 156.133C985.196 158.442 980.915 160.758 976.708 163.009C978.344 162.849 979.978 162.69 981.618 162.521C985.784 160.322 990.03 158.053 994.265 155.793C992.664 155.91 991.065 156.024 989.467 156.133ZM974.627 163.215C978.889 160.937 983.213 158.602 987.536 156.271C839.496 166.142 704.075 142.933 568.811 119.752C486.672 105.675 404.591 91.6118 319.78 84.9772C392.686 93.2878 463.085 107.651 533.893 122.101C672.02 150.287 811.716 178.783 974.627 163.215ZM960.222 170.884C964.407 168.666 968.631 166.414 972.867 164.152C810.603 179.345 671.342 150.923 533.633 122.822C458.971 107.587 384.765 92.451 307.6 84.4116C374.628 93.9622 438.942 109.422 503.868 125.036C642.391 158.349 783.714 192.341 960.222 170.884ZM839.088 232.373C841.95 230.992 844.828 229.598 847.728 228.185C569.426 307.656 454.009 224.129 345.639 145.642C314.392 123.012 283.726 100.81 249.895 83.0728M186.058 78.5944C186.428 79.3476 186.792 80.1068 187.155 80.8677C188.834 80.8125 190.511 80.7646 192.188 80.7177C191.774 79.989 191.358 79.2629 190.938 78.5418C189.314 78.555 187.686 78.5723 186.058 78.5944ZM184.566 75.6202C184.943 76.3617 185.322 77.1 185.692 77.8481C187.296 77.8254 188.899 77.8066 190.499 77.7928C190.082 77.08 189.667 76.3649 189.242 75.6597C187.686 75.6407 186.126 75.6313 184.566 75.6202ZM183.043 72.6817C183.425 73.4076 183.808 74.1322 184.184 74.8654C185.716 74.8746 187.249 74.8813 188.776 74.8981C188.355 74.2037 187.934 73.5093 187.506 72.8228C186.021 72.7726 184.534 72.7243 183.043 72.6817ZM181.493 69.788C181.878 70.4913 182.257 71.202 182.636 71.9139C184.102 71.955 185.566 72.0033 187.028 72.052C186.6 71.3709 186.164 70.6991 185.729 70.0247C184.319 69.9413 182.908 69.8608 181.493 69.788ZM179.906 66.9425C180.295 67.6256 180.676 68.3182 181.058 69.0101C182.45 69.0805 183.839 69.1566 185.225 69.2371C184.791 68.5713 184.351 67.9118 183.91 67.2527C182.58 67.1435 181.242 67.0447 179.906 66.9425ZM178.265 64.1286C178.662 64.7993 179.058 65.4687 179.449 66.1466C180.757 66.2451 182.066 66.3416 183.37 66.4473C182.94 65.811 182.509 65.1738 182.073 64.5451C180.806 64.4025 179.539 64.2601 178.265 64.1286ZM176.607 61.3862C177.003 62.0289 177.4 62.6678 177.789 63.3169C179.024 63.4428 180.254 63.5778 181.484 63.7132C181.05 63.0943 180.619 62.473 180.178 61.8614C178.993 61.6971 177.799 61.5423 176.607 61.3862ZM174.904 58.6689C175.301 59.289 175.693 59.9156 176.086 60.5431C177.239 60.6929 178.395 60.8392 179.544 60.9966C179.111 60.4054 178.675 59.8192 178.237 59.2353C177.127 59.0435 176.02 58.8492 174.904 58.6689ZM173.181 56.0338C173.571 56.6159 173.951 57.2101 174.335 57.7985C175.417 57.971 176.494 58.1524 177.569 58.3359C177.131 57.7619 176.683 57.2001 176.238 56.633C175.225 56.4262 174.201 56.233 173.181 56.0338ZM171.39 53.4274C171.781 53.9886 172.172 54.5491 172.557 55.1163C173.541 55.3054 174.524 55.4967 175.503 55.6919C175.081 55.16 174.655 54.6319 174.226 54.1061C173.283 53.8775 172.34 53.648 171.39 53.4274ZM169.588 50.9068C169.969 51.4286 170.354 51.9453 170.729 52.4731C171.618 52.6757 172.505 52.8809 173.388 53.0911C172.978 52.5976 172.574 52.0981 172.159 51.61C171.306 51.3711 170.447 51.1389 169.588 50.9068ZM167.761 48.442C168.121 48.9146 168.475 49.3933 168.83 49.8714C169.626 50.0824 170.416 50.3039 171.208 50.5219C170.814 50.0687 170.421 49.6139 170.023 49.1654C169.272 48.92 168.517 48.6801 167.761 48.442ZM165.908 46.0595C166.242 46.4789 166.568 46.908 166.898 47.3319C167.576 47.5409 168.259 47.7429 168.934 47.9573C168.572 47.5583 168.204 47.1663 167.837 46.772C167.194 46.5341 166.554 46.293 165.908 46.0595ZM164.037 43.7719C164.327 44.1209 164.618 44.4702 164.906 44.8233C165.474 45.0236 166.035 45.2309 166.598 45.4381C166.264 45.0886 165.92 44.7514 165.583 44.406C165.072 44.1888 164.551 43.985 164.037 43.7719ZM162.182 41.5849C162.42 41.8581 162.665 42.1243 162.9 42.3997C163.299 42.5613 163.694 42.7266 164.091 42.8885C163.843 42.6416 163.591 42.3964 163.34 42.1498C162.952 41.9639 162.572 41.7693 162.182 41.5849ZM160.452 39.6199C160.566 39.7457 160.675 39.8763 160.788 40.0021C160.981 40.0913 161.177 40.177 161.369 40.2662C161.247 40.1521 161.129 40.0336 161.007 39.9199L160.452 39.6199ZM1008.95 147.953C1007.37 148.023 1005.79 148.099 1004.21 148.162C999.79 150.568 995.452 152.901 991.084 155.259C992.69 155.147 994.297 155.039 995.907 154.917C1000.25 152.603 1004.56 150.311 1008.95 147.953ZM1015.5 147.649C1013.93 147.727 1012.35 147.8 1010.78 147.872C1006.45 150.203 1002.18 152.478 997.885 154.771C999.508 154.645 1001.14 154.505 1002.76 154.372C1006.99 152.144 1011.22 149.916 1015.5 147.649ZM1022.1 147.296C1020.53 147.385 1018.96 147.466 1017.39 147.546C1013.17 149.787 1008.98 152.005 1004.8 154.205C1006.42 154.07 1008.03 153.935 1009.65 153.791C1013.77 151.655 1017.94 149.475 1022.1 147.296ZM1028.77 146.895C1027.19 146.995 1025.61 147.1 1024.02 147.193C1019.93 149.334 1015.82 151.496 1011.78 153.595C1013.39 153.449 1015.01 153.301 1016.63 153.146C1020.64 151.102 1024.72 148.984 1028.77 146.895ZM1035.49 146.461C1033.91 146.569 1032.34 146.67 1030.76 146.771C1026.75 148.841 1022.72 150.924 1018.76 152.948C1020.37 152.791 1021.99 152.614 1023.61 152.449C1027.55 150.474 1031.5 148.482 1035.49 146.461ZM1042.2 145.979C1040.65 146.095 1039.11 146.203 1037.56 146.312C1033.62 148.312 1029.74 150.261 1025.84 152.217C1027.46 152.048 1029.07 151.885 1030.68 151.707C1034.48 149.842 1038.36 147.89 1042.2 145.979ZM1049.03 145.439C1047.46 145.568 1045.88 145.703 1044.31 145.824C1040.58 147.683 1036.77 149.613 1033.08 151.432C1034.66 151.254 1036.24 151.072 1037.83 150.886C1041.53 149.101 1045.28 147.268 1049.03 145.439ZM1055.89 144.861C1054.33 144.999 1052.77 145.131 1051.21 145.261C1047.57 147.044 1043.88 148.864 1040.27 150.604C1041.85 150.415 1043.44 150.21 1045.03 150.012C1048.63 148.314 1052.25 146.602 1055.89 144.861ZM1062.82 144.229C1061.27 144.377 1059.72 144.514 1058.17 144.654C1054.64 146.343 1051.1 148.037 1047.61 149.687C1049.16 149.489 1050.71 149.302 1052.26 149.096C1055.77 147.48 1059.27 145.886 1062.82 144.229ZM1069.83 143.533C1068.27 143.691 1066.72 143.853 1065.17 144.003C1061.76 145.597 1058.38 147.164 1055 148.718C1056.55 148.51 1058.1 148.295 1059.66 148.078C1063.05 146.558 1066.4 145.089 1069.83 143.533ZM1076.77 142.804C1075.27 142.967 1073.77 143.13 1072.27 143.286C1068.98 144.783 1065.73 146.228 1062.48 147.689C1064.02 147.469 1065.56 147.232 1067.11 147.005C1070.33 145.605 1073.52 144.235 1076.77 142.804ZM1083.74 142.029C1082.3 142.196 1080.87 142.347 1079.44 142.507C1076.31 143.891 1073.24 145.198 1070.14 146.551C1071.62 146.327 1073.1 146.114 1074.59 145.883C1077.63 144.609 1080.67 143.332 1083.74 142.029ZM1090.8 141.176C1089.4 141.349 1087.99 141.522 1086.59 141.688C1083.67 142.934 1080.8 144.125 1077.9 145.349C1079.36 145.117 1080.82 144.882 1082.28 144.642C1085.1 143.506 1087.95 142.34 1090.8 141.176ZM1097.87 140.281C1096.51 140.459 1095.15 140.641 1093.8 140.813C1091.11 141.917 1088.44 142.993 1085.77 144.077C1087.19 143.839 1088.62 143.581 1090.05 143.336C1092.63 142.342 1095.26 141.3 1097.87 140.281ZM1104.9 139.35C1103.64 139.522 1102.39 139.682 1101.13 139.85C1098.73 140.796 1096.32 141.736 1093.93 142.664C1095.21 142.438 1096.5 142.216 1097.78 141.985C1100.14 141.125 1102.53 140.229 1104.9 139.35ZM1112.01 138.335C1110.85 138.503 1109.7 138.666 1108.54 138.83C1106.48 139.6 1104.4 140.383 1102.35 141.14C1103.44 140.937 1104.53 140.738 1105.63 140.532C1107.75 139.803 1109.87 139.079 1112.01 138.335ZM1118.88 137.31C1117.93 137.456 1116.97 137.608 1116.01 137.751C1114.38 138.322 1112.74 138.916 1111.12 139.478C1111.94 139.319 1112.77 139.153 1113.59 138.991C1115.36 138.43 1117.11 137.882 1118.88 137.31ZM1125.16 136.345C1124.65 136.427 1124.14 136.502 1123.63 136.582C1122.58 136.925 1121.52 137.282 1120.48 137.62C1120.86 137.541 1121.25 137.456 1121.64 137.377L1125.16 136.345ZM194.24 84.4085C192.47 84.4889 190.702 84.5722 188.93 84.6615C200.287 109.44 208.657 137.66 217.18 166.424C233.763 222.39 250.953 280.399 292.013 318.852C352.206 375.223 463.873 389.61 700.388 294.197C473.506 381.033 365.427 362.551 304.826 305.363C265.802 268.536 246.51 215.688 227.854 164.579C217.536 136.312 207.408 108.582 194.24 84.4085ZM200.554 84.1257C198.807 84.1987 197.056 84.2816 195.307 84.361C208.413 108.519 218.52 136.182 228.812 164.382C247.44 215.414 266.704 268.186 305.604 304.895C367.96 363.739 480.941 381.338 722.951 284.543C489.875 372.867 380.326 350.717 317.305 290.755C280.775 255.996 259.918 208.555 239.699 162.56C227.519 134.853 215.567 107.673 200.554 84.1257ZM206.833 83.8918C205.108 83.9524 203.384 84.0153 201.657 84.0842C216.589 107.605 228.503 134.704 240.645 162.324C260.838 208.259 281.666 255.636 318.088 290.291C382.939 351.997 497.398 373.415 746.126 274.734C505.395 365.097 394.205 338.488 328.349 275.266C294.718 242.981 272.943 201.174 251.771 160.524C237.641 133.394 223.775 106.79 206.833 83.8918ZM213.086 83.6823C211.381 83.735 209.675 83.7896 207.967 83.8496C224.807 106.714 238.622 133.224 252.698 160.251C273.846 200.852 295.595 242.611 329.131 274.805C396.551 339.528 511.733 365.704 765.92 266.356L767.059 265.845C518.753 357.656 406.414 325.39 337.437 258.528C307.269 229.285 285.414 193.438 264.097 158.471C247.92 131.936 232.049 105.913 213.086 83.6823ZM219.296 83.4993C217.618 83.5446 215.937 83.5979 214.258 83.6483C233.093 105.837 248.896 131.744 264.999 158.158C286.293 193.086 308.122 228.892 338.223 258.07C407.992 325.699 522.378 357.749 778.049 260.915C779.173 260.407 780.265 259.926 781.396 259.413C527.929 350.248 415.872 310.58 343.684 239.865C317.784 214.494 297.029 185.141 276.704 156.397C258.372 130.47 240.389 105.043 219.296 83.4993ZM225.477 83.3617C223.829 83.3959 222.182 83.4291 220.531 83.4703C241.463 104.964 259.351 130.259 277.585 156.046C297.89 184.764 318.626 214.089 344.475 239.41C417.228 310.68 530.656 350.298 789.651 255.628C791.309 254.869 792.979 254.097 794.638 253.338C463.536 367.738 373.328 257.057 289.638 154.304C269.032 129.004 248.813 104.194 225.477 83.3617ZM231.636 83.2448C230.016 83.2713 228.395 83.301 226.774 83.3329C249.914 104.109 270.009 128.77 290.487 153.913C374.615 257.203 465.368 368.501 802.273 249.825C804.075 248.989 805.917 248.117 807.743 247.258C490.023 352.651 393.125 248.803 302.939 152.183C279.925 127.527 257.347 103.344 231.636 83.2448ZM237.743 83.1572C236.165 83.1773 234.586 83.2008 233.007 83.2251C258.479 103.261 280.902 127.274 303.752 151.755C394.337 248.802 491.776 353.093 814.197 244.228C816.573 243.109 818.915 242.021 821.308 240.889C516.624 337.603 413.171 240.593 316.659 150.036C291.08 126.035 265.984 102.498 237.743 83.1572ZM243.841 83.1048C242.303 83.114 240.767 83.1223 239.227 83.1382C267.175 102.41 292.069 125.764 317.437 149.568C414.285 240.44 518.106 337.853 826.393 238.458C829.068 237.185 831.774 235.881 834.474 234.585C543.057 322.565 433.435 232.353 330.867 147.858C302.555 124.536 274.775 101.659 243.841 83.1048ZM255.928 83.0726C254.506 83.0715 253.086 83.071 251.664 83.0721C285.064 100.734 315.411 122.711 346.327 145.101C455.033 223.831 570.862 307.623 851.829 226.178C854.888 224.686 857.951 223.19 861.027 221.683C595.745 292.847 474.94 215.917 361.069 143.385C326.659 121.467 292.88 99.9578 255.928 83.0726ZM261.935 83.1004C260.577 83.0896 259.22 83.0772 257.861 83.0732C294.304 99.8859 327.701 121.149 361.71 142.813C475.927 215.565 597.142 292.737 864.759 219.852C867.991 218.256 871.285 216.606 874.567 214.965C622.134 278.106 496.32 207.727 377.278 141.081C339.438 119.894 302.276 99.0953 261.935 83.1004ZM267.9 83.1447C266.648 83.1312 265.395 83.126 264.142 83.116C303.86 99.0416 340.536 119.574 377.874 140.478C497.246 207.31 623.418 277.923 877.782 213.363C881.247 211.633 884.7 209.914 888.201 208.152C648.513 263.529 518.239 199.557 394.421 138.721C352.826 118.284 311.957 98.2066 267.9 83.1447ZM273.86 83.2277C272.708 83.2122 271.558 83.1935 270.407 83.1789C313.712 98.1793 353.989 117.96 394.966 138.093C519.123 199.095 649.785 263.249 891.139 206.662C894.69 204.869 898.274 203.048 901.864 201.222C674.912 249.067 540.797 191.394 412.689 136.297C366.967 116.633 322.007 97.3043 273.86 83.2277ZM279.787 83.3286C278.778 83.3081 277.77 83.2856 276.76 83.2683C323.999 97.2956 368.222 116.312 413.183 135.649C541.642 190.896 676.142 248.745 904.535 199.868C908.26 197.969 912.026 196.033 915.804 194.088C701.494 234.731 564.186 183.258 432.336 133.801C382.023 114.929 332.499 96.3594 279.787 83.3286ZM285.681 83.4493C284.873 83.4303 284.064 83.417 283.257 83.399C334.84 96.4009 383.43 114.621 432.779 133.132C564.987 182.723 702.687 234.345 918.222 192.84C922.079 190.854 925.924 188.877 929.815 186.86C728.199 220.602 588.59 175.14 453.696 131.222C398.222 113.161 343.546 95.3627 285.681 83.4493ZM291.602 83.6035L289.93 83.558C346.371 95.4713 399.851 112.877 454.092 130.536C589.362 174.577 729.395 220.153 932.073 185.688C936.011 183.639 940.022 181.525 944.021 179.423C755.217 206.598 614.293 167.041 477.225 128.542C415.898 111.317 355.34 94.3089 291.602 83.6035ZM297.436 83.7699L296.98 83.7542C358.88 94.5087 417.865 111.071 477.575 127.841C615.029 166.447 756.363 206.119 946.064 178.352C950.152 176.205 954.248 174.051 958.381 171.864C782.623 192.843 641.697 158.967 503.565 125.748C435.459 109.37 368.031 93.155 297.436 83.7699ZM611.292 116.533C519.571 103.473 427.178 90.3204 332.233 85.2491C412.72 92.2365 490.851 105.623 569.032 119.023C704.722 142.276 840.574 165.548 989.152 155.397C993.563 153.018 997.95 150.661 1002.42 148.229C869.807 153.339 741.221 135.034 611.292 116.533ZM279.972 82.5808L281.546 82.6131L280.98 82.4982C280.417 82.4706 279.854 82.4398 279.29 82.4134L279.972 82.5808ZM274.068 82.4793C274.865 82.4919 275.664 82.4995 276.461 82.513C276.081 82.4207 275.702 82.3245 275.321 82.2334L272.864 82.1271L274.068 82.4793ZM268.149 82.3971C269.154 82.4081 270.158 82.4252 271.163 82.4387C270.627 82.2838 270.087 82.1349 269.549 81.9831C268.569 81.9432 267.585 81.9118 266.603 81.8747C267.119 82.0487 267.635 82.2209 268.149 82.3971ZM262.209 82.3518L265.621 82.375L263.828 81.7743C262.697 81.733 261.567 81.6888 260.434 81.6523C261.025 81.8852 261.618 82.1169 262.209 82.3518ZM256.23 82.322C257.485 82.3244 258.74 82.329 259.994 82.3358C259.355 82.0854 258.719 81.8316 258.078 81.5848C256.843 81.5488 255.608 81.5112 254.373 81.4777C254.993 81.7569 255.611 82.04 256.23 82.322ZM250.228 82.3216C251.581 82.319 252.932 82.3212 254.283 82.3215C253.609 82.017 252.93 81.7182 252.254 81.4165C250.942 81.3838 249.628 81.3574 248.316 81.3284C248.953 81.6594 249.592 81.9887 250.228 82.3216ZM244.209 82.3513C245.623 82.3423 247.038 82.3266 248.451 82.3208C247.789 81.9778 247.129 81.6282 246.464 81.2881C245.069 81.2571 243.674 81.226 242.276 81.203C242.923 81.5831 243.566 81.9664 244.209 82.3513ZM238.141 82.3992C239.631 82.3828 241.118 82.3726 242.607 82.3632C241.936 81.9647 241.261 81.5738 240.587 81.1798C239.146 81.1584 237.705 81.1379 236.263 81.121C236.891 81.5453 237.516 81.9721 238.141 82.3992ZM232.074 82.4874C233.604 82.4639 235.134 82.441 236.663 82.421C236.013 81.979 235.366 81.5364 234.713 81.0997C233.22 81.0848 231.723 81.0774 230.228 81.0669C230.845 81.5385 231.462 82.0101 232.074 82.4874ZM225.951 82.5998C227.531 82.5667 229.11 82.5349 230.688 82.5072C230.061 82.0207 229.429 81.5402 228.798 81.0588C227.264 81.0487 225.73 81.0389 224.194 81.0373C224.783 81.554 225.366 82.078 225.951 82.5998ZM219.809 82.7354C221.426 82.694 223.04 82.6618 224.656 82.6286C224.056 82.097 223.453 81.5667 222.847 81.0402C221.278 81.0418 219.708 81.0435 218.137 81.0509C218.695 81.6114 219.254 82.1711 219.809 82.7354ZM213.638 82.9149C215.283 82.8648 216.929 82.8148 218.572 82.7695C218.006 82.196 217.44 81.6227 216.87 81.053C215.27 81.0633 213.665 81.0799 212.062 81.095C212.59 81.6991 213.115 82.3044 213.638 82.9149ZM207.424 83.1176C209.105 83.058 210.786 83.0018 212.465 82.9502C211.933 82.3302 211.395 81.7191 210.856 81.1081C209.229 81.1238 207.602 81.1408 205.972 81.1657C206.46 81.8121 206.941 82.4667 207.424 83.1176ZM201.186 83.3505C202.889 83.2823 204.59 83.2207 206.291 83.1601C205.799 82.4998 205.307 81.8407 204.809 81.1871C203.155 81.2149 201.501 81.2449 199.843 81.2801C200.293 81.9681 200.741 82.6564 201.186 83.3505ZM194.911 83.6263C196.634 83.5475 198.358 83.465 200.078 83.392C199.628 82.6922 199.178 81.9947 198.724 81.3003C197.048 81.3381 195.369 81.3853 193.692 81.4303C194.101 82.1587 194.508 82.8896 194.911 83.6263ZM188.591 83.9269C190.344 83.8383 192.095 83.7551 193.844 83.6747C193.436 82.9298 193.02 82.1954 192.604 81.4588C190.908 81.5048 189.211 81.5527 187.512 81.6079C187.876 82.377 188.233 83.1515 188.591 83.9269ZM0.723129 109.382C64.648 94.9335 126.769 87.1215 187.543 83.983C187.182 83.2009 186.816 82.4213 186.446 81.6458C126.812 83.6462 65.2837 90.765 1.00071 105.295L0.71512 104.578C64.9777 90.0523 126.482 82.9224 186.091 80.9066C185.723 80.1384 185.358 79.3706 184.984 78.6111C126.533 79.4642 65.6296 85.8789 0.99295 100.489L0.707107 99.771C65.3141 85.1675 126.187 78.7408 184.607 77.8651C184.231 77.1107 183.852 76.3603 183.47 75.6138C126.23 75.2998 65.9746 80.9935 0.984691 95.6843L0.699098 94.9668C65.6558 80.2843 125.881 74.5713 183.089 74.8577C182.705 74.1147 182.311 73.3818 181.921 72.6461C125.918 71.141 66.3232 76.1084 0.976932 90.8801L0.691088 90.162C65.9922 75.4021 125.549 70.4103 181.514 71.878C181.128 71.1591 180.738 70.4456 180.345 69.7337C125.601 67.0112 66.6859 71.2201 0.96867 86.0743L0.683078 85.3575C66.3406 70.5157 125.21 66.2802 179.913 68.9549C179.521 68.2518 179.131 67.5479 178.732 66.8525C125.273 62.8899 67.0525 66.3286 0.960907 81.2679L0.675065 80.5507C66.6888 65.629 124.855 62.1524 178.265 66.0553C177.868 65.372 177.472 64.6886 177.068 64.0135C124.923 58.7878 67.4211 61.439 0.953147 76.4634L0.667055 75.7459C67.0432 60.742 124.488 58.0461 176.583 63.2012C176.18 62.5353 175.77 61.8805 175.36 61.2223C124.558 54.7059 67.7942 56.5485 0.94464 71.6595L0.659046 70.942C67.3936 55.8569 124.093 53.9554 174.839 60.3804C174.435 59.7374 174.022 59.1039 173.609 58.4695C124.179 50.6371 68.1731 51.6544 0.936626 66.8524L0.651033 66.1352C67.7435 50.9696 123.672 49.8816 173.042 57.5998C172.638 56.9866 172.234 56.3731 171.823 55.7675C123.792 46.5918 68.5625 46.7601 0.928866 62.0482L0.643023 61.3304C68.0889 46.0854 123.229 45.8173 171.189 54.8481C170.791 54.2702 170.398 53.6874 169.993 53.1158C123.391 42.5656 68.9595 41.8638 0.920856 57.2434L0.635013 56.5259C68.4441 41.1981 122.769 41.7842 169.297 52.1534C168.896 51.597 168.49 51.0438 168.083 50.4941C122.95 38.5521 69.3439 36.97 0.912845 52.4375L0.627004 51.7217C68.7855 36.3149 122.275 37.7534 167.334 49.4765C166.944 48.9598 166.542 48.4561 166.146 47.9457C122.507 34.572 69.7507 32.0699 0.904584 47.6321L0.618991 46.9149C69.1109 31.4333 121.728 33.7461 165.285 46.8366C164.91 46.3639 164.53 45.8961 164.15 45.4295C122.041 30.6014 70.1553 27.172 0.896575 42.8279L0.610981 42.1101C69.4197 26.5572 121.132 29.7552 163.154 44.2222C162.812 43.8117 162.475 43.3939 162.128 42.9866C121.578 26.6616 70.5833 22.27 0.888815 38.023L0.602972 37.3056C69.6847 21.6903 120.464 25.7611 160.911 41.6026C160.614 41.2635 160.319 40.9218 160.018 40.5871C121.067 22.7431 71.0004 17.3667 0.880802 33.2166L0.594959 32.4991C69.9038 16.8327 119.705 21.7799 158.545 38.9816C158.305 38.7233 158.063 38.466 157.821 38.2096C120.509 18.8353 71.396 12.4704 0.872792 28.4118L0.586949 27.6943C70.0413 11.9956 118.812 17.803 156.009 36.3266C155.88 36.196 155.748 36.0674 155.618 35.9381C119.974 14.968 71.8405 7.56353 0.864782 23.6073L0.578939 22.8897C69.5072 7.30998 116.995 13.6979 152.428 33.1087C118.56 10.9742 71.64 2.80249 0.856771 18.8018L0.57093 18.0852C68.0463 2.83322 113.953 9.38346 147.545 29.0166C115.53 6.64925 70.1829 -1.67587 0.84876 13.996L0.562917 13.2788C66.5347 -1.63233 110.899 5.02646 142.749 24.7765C112.485 2.28526 68.6725 -6.14178 0.84075 9.19143L0.554907 8.47395C75.3916 -8.44241 121.177 3.31376 151.773 30.9372C153.527 32.261 155.229 33.6395 156.903 35.0475C158.727 36.3322 160.522 37.6481 162.27 39.0151C164.145 40.2457 165.977 41.5243 167.783 42.8315C169.776 44.0464 171.742 45.294 173.668 46.5845C175.7 47.7317 177.699 48.9155 179.67 50.132C181.845 51.2631 183.987 52.4323 186.102 53.634C188.312 54.6926 190.5 55.7777 192.657 56.899C195.015 57.9304 197.34 59.0032 199.648 60.0982C202.115 61.0828 204.562 62.0947 206.981 63.1391C209.47 64.0398 211.939 64.966 214.387 65.9205C217.042 66.7842 219.671 67.6834 222.285 68.6002C225.088 69.4157 227.869 70.2575 230.633 71.1248C233.527 71.8719 236.407 72.6384 239.269 73.4332C242.234 74.1059 245.187 74.7952 248.125 75.5108C251.222 76.1185 254.307 76.7431 257.378 77.3925C260.599 77.9302 263.81 78.4857 267.008 79.0605C270.364 79.5269 273.711 80.0079 277.049 80.5112C280.425 80.8896 283.792 81.288 287.151 81.6979C290.786 82.0124 294.413 82.3463 298.033 82.6932C301.731 82.9235 305.422 83.1697 309.11 83.4302C412.28 87.4384 512.271 101.672 611.479 115.797C741.837 134.359 870.842 152.727 1003.9 147.422C1077.78 107.201 1159 60.4636 1248.38 6.4604L1249 7.04148C1160.11 60.7506 1079.29 107.264 1005.71 147.341C1007.29 147.277 1008.88 147.204 1010.47 147.132C1082.44 108.415 1161.47 63.3843 1248.39 11.2636L1249.01 11.8479C1162.59 63.6703 1083.96 108.477 1012.3 147.051C1013.89 146.975 1015.48 146.891 1017.07 146.81C1087.12 109.605 1163.95 66.2914 1248.4 16.0685L1249.02 16.6553C1165.09 66.5676 1088.69 109.653 1018.96 146.709C1020.54 146.624 1022.12 146.548 1023.7 146.456C1091.83 110.775 1166.45 69.1829 1248.41 20.8727L1249.02 21.4598C1167.62 69.4457 1093.44 110.806 1025.66 146.335C1027.25 146.241 1028.85 146.138 1030.44 146.036C1096.62 111.896 1169.01 72.0375 1248.42 25.6766L1249.03 26.2669C1170.18 72.2977 1098.24 111.926 1032.43 145.912C1034.03 145.806 1035.64 145.692 1037.24 145.579C1101.44 112.994 1171.6 74.8641 1248.43 30.4792L1249.04 31.0723C1172.81 75.1087 1103.12 113.008 1039.31 145.43C1040.86 145.318 1042.41 145.213 1043.97 145.094C1106.24 114.053 1174.13 77.7213 1248.44 35.2837L1249.04 35.8807C1175.35 77.9621 1107.98 114.04 1046.11 144.919C1047.7 144.794 1049.29 144.664 1050.87 144.532C1111.16 115.069 1176.76 80.5113 1248.45 40.0863L1249.05 40.6862C1177.99 80.7534 1112.92 115.053 1053.06 144.354C1054.65 144.218 1056.24 144.07 1057.83 143.927C1116.11 116.052 1179.42 83.2813 1248.46 44.8896L1249.05 45.4923C1180.68 83.5109 1117.94 116.011 1060.11 143.719C1061.68 143.573 1063.26 143.431 1064.83 143.278C1121.1 117.004 1182.1 86.0316 1248.47 49.6944L1249.06 50.3C1183.4 86.2481 1123 116.935 1067.22 143.037C1068.79 142.881 1070.36 142.725 1071.94 142.561C1126.17 117.903 1184.83 88.7501 1248.49 54.4974L1249.06 55.1064C1186.14 88.9637 1128.11 117.824 1074.39 142.308C1075.96 142.141 1077.54 141.958 1079.12 141.783C1131.29 118.756 1187.59 91.4415 1248.5 59.3019L1249.07 59.9132C1188.94 91.6401 1133.32 118.647 1081.7 141.495C1083.22 141.322 1084.74 141.147 1086.25 140.967C1136.41 119.57 1190.33 94.1368 1248.51 64.1026L1249.07 64.7202C1191.79 94.2886 1138.62 119.423 1089.11 140.62C1090.57 140.443 1092.02 140.273 1093.47 140.09C1141.58 120.341 1193.1 96.8018 1248.52 68.9065L1249.07 69.5295C1194.63 96.9316 1143.93 120.151 1096.55 139.692C1097.97 139.509 1099.39 139.319 1100.81 139.129C1146.85 121.046 1195.93 99.4271 1248.54 73.7091L1249.08 74.3353C1197.52 99.5425 1149.33 120.828 1104.08 138.699C1105.46 138.511 1106.84 138.307 1108.21 138.112C1152.16 121.71 1198.8 102.023 1248.55 78.5098L1249.08 79.1447C1200.51 102.101 1154.89 121.42 1111.85 137.593C1113.13 137.408 1114.41 137.224 1115.69 137.033C1157.54 122.33 1201.71 104.589 1248.57 83.313L1249.08 83.9539C1203.58 104.614 1160.61 121.94 1119.83 136.398C1120.99 136.219 1122.15 136.046 1123.31 135.864C1163.02 122.88 1204.68 107.108 1248.58 88.1131L1249.08 88.7632C1206.76 107.07 1166.54 122.37 1128.13 135.086C1129.12 134.925 1130.12 134.763 1131.11 134.598C1168.63 123.355 1207.72 109.584 1248.6 92.9141L1249.07 93.5725C1210.16 109.443 1172.87 122.664 1137 133.607C1137.58 133.507 1138.16 133.402 1138.74 133.301C1174.15 123.8 1210.72 112.064 1248.62 97.7141L1249.07 98.3815C1214.29 111.548 1180.64 122.511 1147.97 131.577C1180.77 123.898 1214.28 114.322 1248.65 102.513L1249.06 103.196C1219.6 113.318 1190.76 121.802 1162.46 128.864C1190.92 123.167 1219.64 116.057 1248.68 107.313L1249.05 108.006C1214.52 118.403 1180.45 126.501 1146.74 132.651C1141.24 133.932 1135.75 135.167 1130.28 136.343C1124.45 137.854 1118.66 139.283 1112.89 140.678C1106.91 142.357 1100.97 143.984 1095.07 145.537C1088.8 147.423 1082.58 149.254 1076.41 150.994C1070.09 152.996 1063.84 154.904 1057.62 156.765C1051.3 158.853 1045.03 160.876 1038.82 162.827C1032.17 165.113 1025.57 167.332 1019.06 169.461C1012.15 171.91 1005.34 174.252 998.593 176.531C992.035 178.915 985.547 181.226 979.132 183.459C972.584 185.899 966.099 188.274 959.695 190.565C951.905 193.546 944.257 196.382 936.687 199.14C929.909 201.766 923.213 204.315 916.601 206.777C909.903 209.418 903.285 211.981 896.746 214.468C888.972 217.586 881.293 220.613 873.735 223.525C866.498 226.464 859.359 229.314 852.324 232.065C845.012 235.072 837.792 237.994 830.689 240.807C823.228 243.91 815.859 246.93 808.618 249.832C801.354 252.879 794.172 255.852 787.113 258.715C779.975 261.739 772.926 264.683 765.986 267.529C758.825 270.595 751.777 273.559 744.821 276.444C477.267 392.082 355.311 379.324 291.238 319.318C250.033 280.728 232.818 222.635 216.211 166.588C207.671 137.771 199.287 109.502 187.883 84.7175C127.086 87.8431 64.9458 95.6475 1.00872 110.1L0.723129 109.382Z" fill="url(#paint0_linear_0_196)"/>
<defs>
<linearGradient id="paint0_linear_0_196" x1="828.595" y1="669.245" x2="375.771" y2="-171.541" gradientUnits="userSpaceOnUse">
<stop stop-color="#0A767B"/>
<stop offset="1" stop-color="#00A7D6"/>
</linearGradient>
</defs>
</svg>
