<?xml version="1.0" standalone="no"?>
<!DOCTYPE svg PUBLIC "-//W3C//DTD SVG 20010904//EN"
 "http://www.w3.org/TR/2001/REC-SVG-20010904/DTD/svg10.dtd">
<svg version="1.0" xmlns="http://www.w3.org/2000/svg"
 width="500.000000pt" height="500.000000pt" viewBox="0 0 500.000000 500.000000"
 preserveAspectRatio="xMidYMid meet">
<metadata>
Created by potrace 1.14, written by Peter Selinger 2001-2017
</metadata>
<g transform="translate(0.000000,500.000000) scale(0.100000,-0.100000)"
fill="#000000" stroke="none">
<path d="M3185 4162 c-1 -2 -118 -4 -258 -5 -141 -2 -259 -6 -263 -10 -6 -6
-8 -39 -5 -91 1 -11 130 -12 774 -9 424 2 816 5 870 6 59 1 98 -2 98 -8 1 -5
3 -253 5 -550 3 -601 15 -2012 18 -2175 1 -58 1 -110 -1 -115 -2 -7 -191 -12
-581 -14 -317 -2 -678 -4 -802 -5 -124 -1 -230 -1 -237 2 -12 4 -12 42 -15
614 0 37 3 71 6 77 9 14 46 5 149 -34 49 -19 99 -37 110 -40 87 -20 125 -23
222 -20 170 5 281 43 359 121 51 51 57 60 78 109 27 64 31 85 34 172 3 133
-54 258 -163 356 -20 17 -44 39 -53 47 -9 8 -23 20 -32 25 -8 6 -70 47 -139
92 -68 46 -131 89 -139 96 -8 7 -35 26 -60 42 -75 50 -173 155 -204 220 -23
47 -30 77 -32 137 -3 68 0 83 24 130 104 198 489 124 606 -116 44 -91 65 -170
66 -254 0 -28 3 -31 18 -23 13 7 17 21 16 63 -1 29 -2 148 -3 264 -1 180 -3
211 -16 211 -8 0 -15 -5 -16 -11 -6 -86 -68 -102 -180 -46 -114 58 -191 77
-298 74 -53 -1 -107 -5 -120 -8 -229 -53 -361 -205 -348 -399 4 -70 40 -177
58 -177 5 0 9 -7 9 -15 0 -16 134 -155 177 -182 15 -9 32 -23 36 -30 4 -7 15
-13 22 -13 8 0 15 -3 15 -7 0 -5 25 -24 55 -43 30 -19 55 -38 55 -42 0 -5 7
-8 15 -8 8 0 15 -4 15 -8 0 -5 10 -14 23 -19 71 -34 307 -236 307 -264 0 -4 7
-14 15 -23 42 -42 54 -197 22 -266 -21 -43 -60 -90 -76 -90 -6 0 -11 -3 -11
-8 0 -23 -116 -50 -235 -54 -13 -1 -80 10 -114 19 -35 8 -124 53 -133 67 -4 6
-8 8 -8 4 0 -13 -76 67 -107 112 -33 49 -81 163 -87 207 -3 15 -7 47 -11 71
-6 36 -10 82 -14 155 -1 9 -8 17 -16 17 -14 0 -15 -76 -11 -672 3 -370 5 -689
6 -708 l0 -36 763 3 c419 2 776 3 792 3 17 0 46 0 65 1 62 2 134 1 173 -3 20
-3 37 -1 37 4 0 4 6 5 14 2 12 -5 13 76 10 538 -5 790 -14 2100 -16 2339 l-1
206 -664 -1 c-366 -1 -666 -2 -668 -4z"/>
<path d="M498 4142 c-51 -6 -51 -9 -49 -350 8 -1392 13 -2266 15 -2482 l2
-254 369 1 c505 1 1548 14 1557 19 3 2 6 26 6 54 1 45 -1 50 -21 50 -41 1
-462 -1 -1129 -5 l-668 -5 0 28 c0 15 -2 385 -5 822 -3 437 -8 1068 -10 1403
l-4 607 112 0 c192 1 1283 8 1465 10 96 1 176 -1 179 -4 4 -3 7 -139 8 -301 2
-332 8 -307 -75 -272 -50 21 -145 45 -214 53 -33 3 -65 7 -73 8 -39 6 -200
-19 -268 -41 -509 -165 -753 -731 -516 -1196 50 -99 59 -111 136 -195 110
-121 308 -235 445 -258 14 -2 43 -7 65 -10 53 -9 188 -9 245 0 25 4 54 9 65
11 42 6 184 67 246 104 l63 38 1 104 c0 57 -1 107 -3 111 -2 4 -13 -2 -25 -13
-87 -82 -232 -158 -352 -183 -67 -14 -177 -15 -250 -1 -100 17 -235 88 -321
167 -82 76 -167 212 -196 313 -6 22 -13 47 -16 55 -2 8 -6 66 -7 129 -4 157
31 274 120 402 230 328 648 385 976 133 32 -24 60 -44 62 -44 3 0 5 225 4 499
l-1 499 -956 -1 c-525 -1 -967 -3 -982 -5z"/>
<path d="M1856 2963 c-2 -2 -19 -6 -38 -7 -19 -2 -56 -15 -84 -29 -52 -27
-134 -98 -134 -116 0 -6 -4 -11 -9 -11 -5 0 -11 -8 -14 -17 -3 -10 -14 -40
-24 -68 -23 -59 -21 -188 3 -226 2 -5 -2 -24 -10 -44 -8 -19 -14 -35 -12 -35
2 0 31 32 65 71 36 42 58 75 54 82 -21 34 -21 212 0 233 1 2 14 -3 28 -10 60
-31 132 -26 181 13 22 19 23 19 65 -6 50 -29 115 -33 163 -8 17 9 34 15 36 12
3 -2 7 -27 11 -55 6 -50 5 -51 -31 -73 -20 -11 -36 -25 -36 -30 0 -5 -7 -9
-15 -9 -8 0 -15 -4 -15 -8 0 -7 -52 -42 -64 -42 -3 0 -3 25 0 55 4 30 4 55 0
55 -6 0 -129 -80 -248 -161 -31 -22 -61 -39 -67 -39 -6 0 -11 -4 -11 -10 0 -5
-7 -10 -15 -10 -8 0 -15 -4 -15 -10 0 -5 -6 -10 -14 -10 -30 0 -23 -29 17 -72
55 -59 90 -82 161 -106 185 -62 393 50 447 243 15 50 16 123 4 182 -3 18 -1
41 5 53 16 30 -3 24 -22 -7 -10 -16 -18 -23 -18 -16 0 6 4 14 9 18 14 8 -25
70 -72 117 -43 43 -112 81 -167 93 -41 9 -108 14 -114 8z m311 -290 c-14 -21
-28 -51 -30 -68 -18 -112 -101 -223 -204 -275 l-42 -21 -48 25 c-26 14 -61 37
-77 50 l-29 24 74 71 c41 39 80 71 87 71 7 0 10 -5 6 -11 -3 -6 -8 -36 -9 -66
-3 -58 1 -59 50 -6 94 102 240 251 244 248 2 -3 -8 -22 -22 -42z"/>
</g>
</svg>
